<svg width="1465" height="722" viewBox="0 0 1465 722" fill="none" xmlns="http://www.w3.org/2000/svg">
<g clip-path="url(#clip0_67_2)">
<path d="M324.968 627.99C324.801 627.989 324.634 627.987 324.467 627.985C324.634 627.987 324.801 627.989 324.968 627.99ZM322.827 627.964C322.694 627.962 322.56 627.96 322.427 627.958C322.56 627.96 322.694 627.962 322.827 627.964ZM320.4 627.913C320.285 627.91 320.171 627.906 320.056 627.903C320.171 627.906 320.285 627.91 320.4 627.913ZM318.456 627.854C318.233 627.847 318.01 627.84 317.787 627.832C318.01 627.84 318.233 627.847 318.456 627.854ZM315.984 627.761C315.949 627.759 315.914 627.758 315.879 627.757C315.914 627.758 315.949 627.759 315.984 627.761ZM313.768 627.654C313.695 627.65 313.622 627.646 313.548 627.643C313.622 627.646 313.695 627.65 313.768 627.654ZM311.765 627.541C311.598 627.531 311.432 627.521 311.265 627.511C311.432 627.521 311.598 627.531 311.765 627.541ZM309.334 627.385C309.24 627.378 309.145 627.371 309.05 627.364C309.145 627.371 309.24 627.378 309.334 627.385ZM307.391 627.24C307.198 627.225 307.006 627.211 306.813 627.195C307.006 627.211 307.198 627.225 307.391 627.24ZM305.147 627.057C305.038 627.047 304.929 627.038 304.82 627.028C304.929 627.038 305.038 627.047 305.147 627.057ZM302.867 626.849C302.692 626.832 302.518 626.815 302.344 626.798C302.518 626.815 302.692 626.832 302.867 626.849ZM300.985 626.661C300.727 626.634 300.47 626.607 300.212 626.58C300.47 626.607 300.727 626.634 300.985 626.661ZM298.547 626.397C298.487 626.391 298.428 626.384 298.368 626.377C298.428 626.384 298.487 626.391 298.547 626.397ZM296.306 626.133C296.235 626.124 296.163 626.115 296.091 626.106C296.163 626.115 296.235 626.124 296.306 626.133ZM294.134 625.857C294.105 625.854 294.075 625.85 294.045 625.846C294.075 625.85 294.105 625.854 294.134 625.857ZM292.001 625.568C291.881 625.551 291.76 625.534 291.639 625.517C291.76 625.534 291.881 625.551 292.001 625.568ZM289.934 625.27C289.826 625.254 289.719 625.237 289.611 625.221C289.719 625.237 289.826 625.254 289.934 625.27ZM287.803 624.943C287.725 624.931 287.647 624.919 287.569 624.906C287.647 624.919 287.725 624.931 287.803 624.943ZM285.59 624.585C285.493 624.569 285.396 624.552 285.299 624.536C285.396 624.552 285.493 624.569 285.59 624.585ZM283.57 624.239C283.453 624.219 283.335 624.198 283.218 624.178C283.335 624.198 283.453 624.219 283.57 624.239ZM279.285 623.45C280.592 623.703 281.903 623.945 283.218 624.178C281.903 623.945 280.592 623.703 279.285 623.45ZM279.285 623.45C279.173 623.429 279.061 623.407 278.95 623.385C279.061 623.407 279.173 623.429 279.285 623.45ZM274.988 622.581C276.305 622.86 277.625 623.127 278.95 623.385C277.625 623.127 276.305 622.86 274.988 622.581ZM274.988 622.581C274.893 622.561 274.799 622.54 274.705 622.52C274.799 622.54 274.893 622.561 274.988 622.581ZM273.005 622.152C272.893 622.128 272.78 622.102 272.667 622.077C272.78 622.102 272.893 622.128 273.005 622.152ZM270.95 621.69C270.853 621.668 270.756 621.646 270.66 621.624C270.756 621.646 270.853 621.668 270.95 621.69ZM268.833 621.196C268.663 621.156 268.494 621.115 268.325 621.074C268.494 621.115 268.663 621.156 268.833 621.196ZM266.838 620.712C266.694 620.676 266.55 620.64 266.406 620.604C266.55 620.64 266.694 620.676 266.838 620.712ZM262.596 619.624C263.862 619.961 265.132 620.287 266.406 620.604C265.132 620.287 263.862 619.961 262.596 619.624ZM262.596 619.624C262.485 619.594 262.373 619.565 262.261 619.535C262.373 619.565 262.485 619.594 262.596 619.624ZM260.507 619.06C260.449 619.044 260.391 619.028 260.333 619.012C260.391 619.028 260.449 619.044 260.507 619.06ZM327 128C417.785 128 497.267 176.392 541.061 248.788C537.824 243.436 534.391 238.216 530.773 233.137C529.553 264.721 526.626 293.673 521.93 320.345C497.037 236.308 419.246 175 327.134 175C214.946 175 124 265.947 124 378.135C124 490.323 214.946 581.269 327.134 581.27C329.19 581.27 331.238 581.237 333.279 581.177C310.773 594.085 285.871 606.465 258.343 618.453C153.654 588.618 76.9996 492.261 76.9995 378C76.9995 239.929 188.928 128 327 128ZM333.289 581.176C334.132 581.151 334.973 581.121 335.814 581.086C334.973 581.121 334.132 581.151 333.289 581.176ZM335.855 581.084C335.841 581.085 335.828 581.085 335.814 581.086C335.828 581.085 335.841 581.085 335.855 581.084ZM337.144 581.025C337.114 581.027 337.084 581.028 337.054 581.029C337.084 581.028 337.114 581.027 337.144 581.025ZM403.406 566.463C382.786 574.822 360.482 579.893 337.144 581.025C360.482 579.893 382.786 574.822 403.406 566.463ZM403.554 566.402C403.505 566.422 403.455 566.443 403.406 566.463C403.455 566.443 403.505 566.422 403.554 566.402ZM405.777 565.484C405.749 565.496 405.72 565.508 405.692 565.52C405.72 565.508 405.749 565.496 405.777 565.484ZM416.305 560.697C412.849 562.388 409.34 563.987 405.777 565.484C409.34 563.987 412.849 562.388 416.305 560.697ZM416.961 560.376C416.743 560.484 416.524 560.59 416.305 560.697C416.524 560.59 416.743 560.484 416.961 560.376ZM419.189 559.26C418.91 559.402 418.63 559.541 418.351 559.682C418.63 559.541 418.91 559.402 419.189 559.26ZM421.325 558.155C421.058 558.295 420.79 558.434 420.523 558.572C420.79 558.434 421.058 558.295 421.325 558.155ZM423.443 557.028C423.214 557.152 422.985 557.274 422.755 557.396C422.985 557.274 423.214 557.152 423.443 557.028ZM425.626 555.833C425.353 555.985 425.079 556.135 424.805 556.285C425.079 556.135 425.353 555.985 425.626 555.833ZM427.729 554.649C427.458 554.804 427.187 554.957 426.916 555.11C427.187 554.957 427.458 554.804 427.729 554.649ZM429.862 553.414C429.574 553.583 429.285 553.751 428.996 553.919C429.285 553.751 429.574 553.583 429.862 553.414ZM431.872 552.218C431.635 552.36 431.399 552.502 431.162 552.644C431.399 552.502 431.635 552.36 431.872 552.218ZM434.018 550.905C433.738 551.079 433.457 551.252 433.175 551.425C433.457 551.252 433.738 551.079 434.018 550.905ZM435.992 549.666C435.744 549.824 435.496 549.98 435.248 550.137C435.496 549.98 435.744 549.824 435.992 549.666ZM438.003 548.37C437.79 548.51 437.575 548.648 437.361 548.787C437.575 548.648 437.79 548.51 438.003 548.37ZM440.082 546.995C439.831 547.163 439.579 547.331 439.328 547.498C439.579 547.331 439.831 547.163 440.082 546.995ZM442.103 545.622C441.838 545.804 441.574 545.985 441.308 546.166C441.574 545.985 441.838 545.804 442.103 545.622ZM444.108 544.226C443.825 544.425 443.542 544.625 443.257 544.823C443.542 544.625 443.825 544.425 444.108 544.226ZM446.006 542.87C445.769 543.041 445.532 543.213 445.294 543.383C445.532 543.213 445.769 543.041 446.006 542.87ZM447.987 541.42C447.735 541.607 447.483 541.794 447.23 541.979C447.483 541.794 447.735 541.607 447.987 541.42ZM449.895 539.988C449.654 540.171 449.413 540.354 449.171 540.536C449.413 540.354 449.654 540.171 449.895 539.988ZM451.829 538.501C451.589 538.687 451.35 538.873 451.11 539.059C451.35 538.873 451.589 538.687 451.829 538.501ZM453.74 536.994C453.483 537.199 453.225 537.404 452.967 537.608C453.225 537.404 453.483 537.199 453.74 536.994ZM455.644 535.455C455.387 535.665 455.131 535.876 454.873 536.085C455.131 535.876 455.387 535.665 455.644 535.455ZM457.439 533.971C457.196 534.174 456.953 534.378 456.708 534.58C456.953 534.378 457.196 534.174 457.439 533.971ZM459.356 532.347C459.112 532.556 458.869 532.765 458.625 532.973C458.869 532.765 459.112 532.556 459.356 532.347ZM461.201 530.743C460.922 530.988 460.644 531.232 460.365 531.476C460.644 531.232 460.922 530.988 461.201 530.743ZM462.916 529.219C462.682 529.429 462.449 529.639 462.214 529.848C462.449 529.639 462.682 529.429 462.916 529.219ZM464.903 527.408C464.605 527.683 464.308 527.958 464.008 528.231C464.308 527.958 464.605 527.683 464.903 527.408ZM327 228.003C409.842 228.003 477 295.16 477 378.003C476.999 460.846 409.842 528.003 327 528.003C244.157 528.003 177 460.845 177 378.003C177 295.16 244.157 228.003 327 228.003ZM466.557 525.863C466.28 526.125 466.003 526.387 465.724 526.647C466.003 526.387 466.28 526.125 466.557 525.863ZM468.145 524.348C467.943 524.542 467.743 524.738 467.541 524.932C467.743 524.738 467.943 524.542 468.145 524.348ZM469.812 522.722C469.647 522.885 469.482 523.048 469.316 523.211C469.482 523.048 469.647 522.885 469.812 522.722ZM471.561 520.974C471.374 521.163 471.188 521.353 471 521.542C471.188 521.353 471.374 521.163 471.561 520.974ZM473.338 519.154C473.119 519.382 472.9 519.611 472.679 519.838C472.9 519.611 473.119 519.382 473.338 519.154ZM474.933 517.482C474.733 517.695 474.533 517.908 474.332 518.12C474.533 517.908 474.733 517.695 474.933 517.482ZM476.485 515.819C476.33 515.987 476.177 516.157 476.021 516.324C476.177 516.157 476.33 515.987 476.485 515.819ZM478.175 513.964C477.993 514.166 477.812 514.369 477.629 514.57C477.812 514.369 477.993 514.166 478.175 513.964ZM479.681 512.271C479.534 512.438 479.389 512.607 479.242 512.773C479.389 512.607 479.534 512.438 479.681 512.271ZM482.948 508.467C482.758 508.693 482.57 508.92 482.379 509.146C482.57 508.92 482.758 508.693 482.948 508.467ZM485.891 504.87C485.74 505.059 485.591 505.249 485.439 505.438C485.591 505.249 485.74 505.059 485.891 504.87ZM492.342 496.351C490.265 499.248 488.114 502.089 485.891 504.87C488.114 502.089 490.265 499.248 492.342 496.351ZM492.731 495.811C492.602 495.991 492.471 496.17 492.342 496.351C492.471 496.17 492.602 495.991 492.731 495.811ZM494.111 493.849C493.96 494.066 493.806 494.281 493.655 494.498C493.806 494.281 493.96 494.066 494.111 493.849ZM496.855 489.791C496.665 490.079 496.472 490.366 496.281 490.653C496.472 490.366 496.665 490.079 496.855 489.791ZM498.158 487.789C497.947 488.117 497.734 488.443 497.521 488.77C497.734 488.443 497.947 488.117 498.158 487.789ZM499.471 485.718C499.257 486.06 499.041 486.4 498.825 486.74C499.041 486.4 499.257 486.06 499.471 485.718ZM500.752 483.644C500.557 483.964 500.359 484.282 500.162 484.602C500.359 484.282 500.557 483.964 500.752 483.644ZM502.043 481.494C501.807 481.894 501.566 482.291 501.327 482.688C501.566 482.291 501.807 481.894 502.043 481.494ZM503.223 479.473C502.999 479.861 502.773 480.247 502.546 480.634C502.773 480.247 502.999 479.861 503.223 479.473ZM504.436 477.341C504.216 477.733 503.993 478.123 503.771 478.514C503.993 478.123 504.216 477.733 504.436 477.341ZM505.559 475.312C505.404 475.596 505.246 475.879 505.089 476.163C505.246 475.879 505.404 475.596 505.559 475.312ZM510.595 473.87C510.197 474.52 509.796 475.168 509.394 475.814H509.393C509.795 475.168 510.196 474.52 510.594 473.87H510.595ZM506.743 473.11C506.602 473.377 506.459 473.642 506.317 473.907C506.459 473.642 506.602 473.377 506.743 473.11ZM507.892 470.907C507.703 471.275 507.512 471.641 507.321 472.008C507.512 471.641 507.703 471.275 507.892 470.907ZM508.968 468.785C508.788 469.145 508.606 469.504 508.424 469.862C508.606 469.504 508.788 469.145 508.968 468.785ZM510.056 466.572C509.891 466.913 509.724 467.254 509.557 467.594C509.724 467.254 509.891 466.913 510.056 466.572ZM511.966 462.521C511.345 463.88 510.707 465.229 510.056 466.572C510.707 465.229 511.345 463.88 511.966 462.521ZM513.889 458.182C513.274 459.614 512.642 461.038 511.996 462.453C512.642 461.038 513.274 459.614 513.889 458.182ZM513.986 457.952C513.953 458.028 513.922 458.105 513.889 458.182C513.922 458.105 513.953 458.028 513.986 457.952ZM514.927 455.715C514.896 455.79 514.865 455.866 514.833 455.941C514.865 455.866 514.896 455.79 514.927 455.715ZM516.647 451.419C516.09 452.859 515.516 454.291 514.927 455.715C515.516 454.291 516.09 452.859 516.647 451.419ZM516.774 451.09C516.732 451.2 516.689 451.309 516.647 451.419C516.689 451.309 516.732 451.2 516.774 451.09ZM518.305 446.979C517.809 448.356 517.299 449.726 516.774 451.09C517.299 449.726 517.809 448.356 518.305 446.979ZM518.461 446.543C518.409 446.688 518.357 446.833 518.305 446.979C518.357 446.833 518.409 446.688 518.461 446.543ZM520.67 440.015C519.97 442.207 519.234 444.384 518.461 446.543C519.234 444.384 519.97 442.207 520.67 440.015ZM520.762 439.731C520.732 439.826 520.701 439.92 520.67 440.015C520.701 439.92 520.732 439.826 520.762 439.731ZM523.338 430.934C523.504 430.315 523.668 429.695 523.829 429.074C523.668 429.695 523.504 430.315 523.338 430.934ZM524.127 427.902C524.091 428.049 524.053 428.195 524.016 428.341C524.053 428.195 524.091 428.049 524.127 427.902ZM524.759 425.325C524.708 425.539 524.656 425.752 524.604 425.966C524.656 425.752 524.708 425.539 524.759 425.325ZM525.017 424.225C524.977 424.396 524.937 424.568 524.897 424.739C524.937 424.568 524.977 424.396 525.017 424.225ZM525.311 422.938C525.253 423.194 525.195 423.451 525.136 423.707C525.195 423.451 525.253 423.194 525.311 422.938ZM525.813 420.646C525.781 420.796 525.748 420.945 525.716 421.094C525.748 420.945 525.781 420.796 525.813 420.646ZM526.122 419.17C526.072 419.41 526.022 419.649 525.972 419.889C526.022 419.649 526.072 419.41 526.122 419.17ZM526.339 418.093C526.296 418.312 526.251 418.532 526.207 418.751C526.251 418.532 526.296 418.312 526.339 418.093ZM526.599 416.767C526.552 417.014 526.503 417.26 526.455 417.507C526.503 417.26 526.552 417.014 526.599 416.767ZM526.841 415.49C526.785 415.794 526.727 416.098 526.669 416.401C526.727 416.098 526.785 415.794 526.841 415.49ZM527.051 414.338C527.013 414.548 526.975 414.758 526.937 414.968C526.975 414.758 527.013 414.548 527.051 414.338ZM527.283 413.026C527.231 413.326 527.179 413.625 527.125 413.924C527.179 413.625 527.231 413.326 527.283 413.026ZM527.698 410.538C527.651 410.827 527.606 411.115 527.558 411.403C527.606 411.115 527.651 410.827 527.698 410.538ZM528.075 408.092C528.039 408.336 528.002 408.58 527.965 408.823C528.002 408.58 528.039 408.336 528.075 408.092ZM528.275 406.707C528.234 407 528.191 407.292 528.149 407.585C528.191 407.292 528.234 407 528.275 406.707ZM528.422 405.636C528.389 405.886 528.354 406.136 528.319 406.386C528.354 406.136 528.389 405.886 528.422 405.636ZM528.589 404.373C528.562 404.588 528.534 404.804 528.505 405.019C528.534 404.804 528.562 404.588 528.589 404.373ZM528.729 403.264C528.717 403.363 528.705 403.462 528.693 403.561C528.705 403.462 528.717 403.363 528.729 403.264ZM528.896 401.871C528.873 402.065 528.851 402.259 528.828 402.453C528.851 402.259 528.873 402.065 528.896 401.871ZM529.105 400.002C529.147 399.608 529.189 399.215 529.229 398.82C529.189 399.215 529.147 399.608 529.105 400.002ZM529.298 398.105C529.277 398.327 529.255 398.548 529.233 398.77C529.255 398.548 529.277 398.327 529.298 398.105ZM529.432 396.688C529.409 396.941 529.387 397.194 529.363 397.447C529.387 397.194 529.409 396.941 529.432 396.688ZM529.654 394.056C529.631 394.351 529.608 394.646 529.583 394.941C529.608 394.646 529.631 394.351 529.654 394.056ZM529.775 392.405C529.85 391.319 529.917 390.23 529.975 389.139C529.917 390.23 529.85 391.319 529.775 392.405ZM530.167 384.646C530.119 386.148 530.055 387.645 529.975 389.139C530.055 387.645 530.119 386.148 530.167 384.646ZM530.22 382.575C530.205 383.266 530.188 383.957 530.167 384.646C530.188 383.957 530.205 383.266 530.22 382.575ZM530.241 381.479C530.235 381.844 530.228 382.21 530.22 382.575C530.228 382.21 530.235 381.844 530.241 381.479ZM530.261 379.829C530.257 380.379 530.25 380.929 530.241 381.479C530.25 380.929 530.257 380.379 530.261 379.829ZM530.255 375.896C530.258 376.11 530.261 376.324 530.262 376.539C530.261 376.324 530.258 376.11 530.255 375.896ZM576.982 375.105C576.985 375.358 576.987 375.611 576.989 375.864C576.987 375.611 576.985 375.358 576.982 375.105ZM576.939 372.507C576.943 372.685 576.947 372.862 576.951 373.04C576.947 372.862 576.943 372.685 576.939 372.507ZM530.181 372.169C530.186 372.347 530.192 372.524 530.197 372.702C530.192 372.524 530.186 372.347 530.181 372.169ZM530.129 370.562C529.996 366.922 529.767 363.305 529.444 359.716C529.766 363.305 529.996 366.922 530.129 370.562ZM576.882 370.282C576.885 370.382 576.887 370.483 576.89 370.583C576.887 370.483 576.885 370.382 576.882 370.282ZM576.68 365.27C576.688 365.432 576.696 365.595 576.704 365.758C576.696 365.595 576.688 365.432 576.68 365.27ZM576.536 362.666C576.544 362.802 576.552 362.939 576.56 363.075C576.552 362.939 576.544 362.802 576.536 362.666ZM576.386 360.354C576.393 360.452 576.399 360.551 576.406 360.65C576.399 360.551 576.393 360.452 576.386 360.354ZM529.398 359.214C529.413 359.381 529.429 359.548 529.444 359.716C529.429 359.548 529.413 359.381 529.398 359.214ZM529.24 357.571C527.953 344.776 525.479 332.331 521.93 320.349C521.93 320.347 521.93 320.346 521.93 320.345C525.48 332.329 527.953 344.775 529.24 357.571ZM576.184 357.67C576.199 357.852 576.213 358.033 576.227 358.215C576.213 358.033 576.199 357.852 576.184 357.67ZM575.969 355.159C575.981 355.292 575.994 355.424 576.005 355.557C575.994 355.424 575.981 355.292 575.969 355.159ZM575.21 347.947C575.226 348.076 575.241 348.206 575.256 348.335C575.241 348.206 575.226 348.076 575.21 347.947ZM574.261 340.874C574.611 343.221 574.927 345.579 575.21 347.947C574.927 345.579 574.611 343.221 574.261 340.874ZM574.208 340.516C574.225 340.635 574.243 340.755 574.261 340.874C574.243 340.755 574.225 340.635 574.208 340.516ZM573.062 333.567C573.476 335.873 573.858 338.189 574.208 340.516C573.858 338.189 573.476 335.873 573.062 333.567ZM572.588 331.001C572.605 331.09 572.621 331.179 572.638 331.268C572.621 331.179 572.605 331.09 572.588 331.001ZM572.072 328.37C572.107 328.544 572.143 328.718 572.177 328.892C572.143 328.718 572.107 328.544 572.072 328.37ZM571.634 326.241C571.657 326.348 571.678 326.455 571.701 326.562C571.678 326.455 571.657 326.348 571.634 326.241ZM570.103 319.442C570.644 321.697 571.155 323.963 571.634 326.241C571.155 323.963 570.644 321.697 570.103 319.442ZM569.988 318.965C570.026 319.124 570.065 319.283 570.103 319.442C570.065 319.283 570.026 319.124 569.988 318.965ZM568.272 312.285C568.874 314.5 569.446 316.726 569.988 318.965C569.446 316.726 568.874 314.5 568.272 312.285ZM568.198 312.014C568.222 312.104 568.247 312.195 568.272 312.285C568.247 312.195 568.222 312.104 568.198 312.014ZM560.004 287.215C563.151 295.286 565.891 303.561 568.198 312.014C565.89 303.561 563.151 295.286 560.004 287.215ZM559.921 287.004C559.949 287.074 559.977 287.144 560.004 287.215C559.977 287.144 559.949 287.074 559.921 287.004ZM541.166 248.963C548.444 261.017 554.733 273.734 559.921 287.004C554.733 273.734 548.444 261.017 541.166 248.963ZM541.061 248.788C541.096 248.846 541.13 248.905 541.166 248.963C541.13 248.905 541.096 248.846 541.061 248.788ZM482.379 509.146C481.913 509.698 481.443 510.247 480.971 510.794C481.443 510.247 481.913 509.698 482.379 509.146ZM485.439 505.438C484.978 506.01 484.513 506.579 484.046 507.146C484.513 506.579 484.978 506.01 485.439 505.438ZM496.281 490.653C496.006 491.066 495.731 491.478 495.454 491.889C495.731 491.478 496.006 491.066 496.281 490.653ZM522.203 434.998C522.175 435.092 522.147 435.186 522.12 435.28C522.147 435.186 522.175 435.092 522.203 434.998ZM524.604 425.966C524.539 426.236 524.474 426.505 524.408 426.774C524.474 426.505 524.539 426.236 524.604 425.966ZM525.577 421.736C525.511 422.036 525.445 422.336 525.378 422.635C525.445 422.336 525.511 422.036 525.577 421.736ZM527.502 411.735C527.447 412.07 527.39 412.405 527.333 412.739C527.39 412.405 527.447 412.07 527.502 411.735ZM527.886 409.343C527.841 409.636 527.795 409.93 527.749 410.223C527.795 409.93 527.841 409.636 527.886 409.343ZM529.065 400.368C529.031 400.677 528.997 400.986 528.962 401.295C528.997 400.986 529.031 400.677 529.065 400.368ZM529.545 395.385C529.521 395.678 529.496 395.972 529.47 396.265C529.496 395.972 529.521 395.678 529.545 395.385ZM529.764 392.562C529.739 392.924 529.712 393.287 529.685 393.649C529.712 393.287 529.739 392.924 529.764 392.562ZM576.704 365.758C576.736 366.428 576.765 367.099 576.792 367.771C576.765 367.099 576.736 366.428 576.704 365.758ZM575.256 348.335C575.341 349.052 575.424 349.77 575.502 350.488C575.424 349.77 575.341 349.052 575.256 348.335ZM572.638 331.268C572.775 331.989 572.908 332.712 573.039 333.437C572.908 332.712 572.775 331.989 572.638 331.268Z" fill="#6644FF"/>
<path d="M571.2 125.911C554.448 -163.154 597.585 141.145 597.585 141.145C661.5 570.003 661.5 570.003 287.921 677.499C287.921 677.499 12.4233 766.633 261.535 662.265C510.647 557.897 587.951 414.976 571.2 125.911Z" fill="#6644FF"/>
</g>
<path d="M881.965 542.014C903.803 557.103 926.35 565.539 949.606 567.32C972.68 569.384 994.718 565.017 1015.72 554.218C1036.54 543.702 1054.26 527.165 1068.87 504.605C1080.02 487.404 1088.03 467.629 1092.9 445.279C1097.78 422.93 1100.06 395.932 1099.76 364.287L1097.29 191.129L1044.63 154.743L1048.47 325.786L1037.45 327.969C1034.86 324.549 1031.77 320.984 1028.17 317.273C1024.67 314.035 1020.84 310.983 1016.69 308.118C997.068 294.557 976.408 287.222 954.717 286.114C933.301 285.196 912.781 290 893.156 300.525C873.808 311.241 857.191 327.315 843.306 348.746C828.691 371.306 820.648 394.528 819.179 418.415C817.527 442.583 822.026 465.287 832.677 486.526C843.421 508.238 859.85 526.734 881.965 542.014ZM1021.6 471.944C1012.47 486.043 1001.85 496.259 989.743 502.59C977.731 509.395 964.831 512.32 951.043 511.366C937.531 510.602 924.141 505.636 910.873 496.468C897.88 487.491 888.327 476.604 882.212 463.806C876.374 451.199 874.07 437.768 875.301 423.515C876.35 409.543 881.441 395.507 890.576 381.408C899.528 367.59 910.148 357.375 922.437 350.761C934.542 344.43 947.351 341.646 960.863 342.409C974.468 343.645 987.767 348.752 1000.76 357.729C1014.03 366.898 1023.67 377.644 1029.69 389.969C1035.81 402.767 1038.2 416.056 1036.88 429.837C1035.65 444.091 1030.56 458.126 1021.6 471.944Z" fill="#6644FF"/>
<path d="M1288.69 142.689C1315.02 142.689 1338.36 148.523 1358.69 160.189C1379.02 171.523 1395.02 187.523 1406.69 208.189C1418.36 228.523 1424.19 252.023 1424.19 278.689C1424.19 299.023 1420.19 319.689 1412.19 340.689C1404.19 361.689 1391.52 385.023 1374.19 410.689L1278.69 550.689H1215.19L1310.69 413.189L1302.69 405.189C1298.69 406.523 1294.19 407.689 1289.19 408.689C1284.52 409.356 1279.69 409.689 1274.69 409.689C1251.02 409.689 1229.86 404.023 1211.19 392.689C1192.86 381.356 1178.36 365.856 1167.69 346.189C1157.36 326.523 1152.19 304.023 1152.19 278.689C1152.19 252.023 1158.02 228.523 1169.69 208.189C1181.36 187.523 1197.36 171.523 1217.69 160.189C1238.36 148.523 1262.02 142.689 1288.69 142.689ZM1367.19 278.689C1367.19 262.023 1363.86 247.689 1357.19 235.689C1350.86 223.356 1341.69 213.689 1329.69 206.689C1318.02 199.689 1304.19 196.189 1288.19 196.189C1272.52 196.189 1258.69 199.689 1246.69 206.689C1235.02 213.689 1225.86 223.356 1219.19 235.689C1212.52 247.689 1209.19 262.023 1209.19 278.689C1209.19 295.023 1212.52 309.356 1219.19 321.689C1225.86 333.689 1235.02 343.189 1246.69 350.189C1258.69 356.856 1272.52 360.189 1288.19 360.189C1304.19 360.189 1318.02 356.856 1329.69 350.189C1341.69 343.189 1350.86 333.689 1357.19 321.689C1363.86 309.356 1367.19 295.023 1367.19 278.689Z" fill="#6644FF"/>
<defs>
<clipPath id="clip0_67_2">
<rect width="722" height="722" fill="white" transform="translate(0 0.00292969)"/>
</clipPath>
</defs>
</svg>
