<svg width="401" height="105" viewBox="0 0 401 105" fill="none" xmlns="http://www.w3.org/2000/svg">
<g clip-path="url(#clip0_76_272)">
<path d="M44.8877 88.6748L44.2754 88.6699C44.1985 88.6686 44.1217 88.6649 44.0449 88.6631C44.325 88.6698 44.606 88.6748 44.8877 88.6748ZM46.6211 88.6309C46.0469 88.6594 45.469 88.6748 44.8877 88.6748C45.4689 88.6748 46.047 88.6594 46.6211 88.6309ZM43.9434 88.6602C43.6809 88.6531 43.4192 88.6438 43.1582 88.6309C43.4192 88.6438 43.6809 88.6531 43.9434 88.6602ZM46.709 88.626C46.6797 88.6275 46.6504 88.6294 46.6211 88.6309C46.6504 88.6294 46.6797 88.6275 46.709 88.626ZM43.1113 88.6289C42.8367 88.6149 42.563 88.5966 42.29 88.5762C42.563 88.5966 42.8367 88.6149 43.1113 88.6289ZM49.2578 88.3994C48.4173 88.5063 47.5673 88.5811 46.709 88.626C47.5673 88.5811 48.4173 88.5062 49.2578 88.3994ZM41.3574 88.4941C41.0889 88.4667 40.8213 88.436 40.5547 88.4023C40.8213 88.4359 41.0889 88.4667 41.3574 88.4941ZM40.4268 88.3857C40.2211 88.359 40.016 88.3301 39.8115 88.2998C40.016 88.3301 40.2211 88.359 40.4268 88.3857ZM52.7988 87.7559C51.8776 87.9733 50.9424 88.1544 49.9941 88.2959C50.9424 88.1544 51.8776 87.9733 52.7988 87.7559ZM39.5703 88.2637C39.3322 88.2266 39.0949 88.1874 38.8584 88.1455C39.0949 88.1874 39.3322 88.2266 39.5703 88.2637ZM38.6885 88.1143C38.4877 88.0776 38.2875 88.0392 38.0879 87.999C38.2875 88.0391 38.4877 88.0776 38.6885 88.1143ZM36.3906 87.6123C36.8842 87.7381 37.3819 87.8539 37.8838 87.958C37.3819 87.8539 36.8842 87.7381 36.3906 87.6123ZM53.4639 87.5947C53.2433 87.6515 53.0211 87.7034 52.7988 87.7559C53.2974 87.6382 53.7923 87.5122 54.2822 87.373L53.4639 87.5947ZM36.2178 87.5684C36.0257 87.5183 35.8343 87.4663 35.6436 87.4131C35.8343 87.4663 36.0257 87.5183 36.2178 87.5684ZM44.8877 20.041C56.8676 20.0411 67.4122 26.181 73.5508 35.4844C73.3247 35.1417 73.0934 34.8027 72.8555 34.4688C72.688 38.8053 72.2883 42.7805 71.6436 46.4424C68.226 34.9077 57.5495 26.4923 44.9062 26.4922C29.5066 26.4924 17.0227 38.9764 17.0225 54.376C17.0228 69.7755 29.5067 82.2606 44.9062 82.2607C45.1858 82.2607 45.4646 82.2543 45.7422 82.2461C42.6538 84.0173 39.2382 85.7183 35.4609 87.3633C35.5216 87.3806 35.5828 87.3961 35.6436 87.4131C21.1814 83.3769 10.5706 70.1068 10.5703 54.3574C10.5706 35.4049 25.9352 20.0412 44.8877 20.041ZM55.3525 87.0469C55.0089 87.1568 54.6637 87.264 54.3154 87.3633C54.6637 87.264 55.0089 87.1568 55.3525 87.0469ZM56.6865 86.5928C56.4237 86.689 56.1593 86.7821 55.8936 86.8721C56.1597 86.782 56.4243 86.6882 56.6875 86.5918L56.6865 86.5928ZM58.5801 85.8311C58.2132 85.9909 57.8441 86.1467 57.4707 86.2939C57.8441 86.1467 58.2133 85.9909 58.5801 85.8311ZM60.1396 85.1035C59.7663 85.2891 59.3907 85.4713 59.0098 85.6436C59.3907 85.4713 59.7663 85.2891 60.1396 85.1035ZM60.8975 84.7148C60.6466 84.8474 60.3941 84.977 60.1396 85.1035C60.3941 84.977 60.6466 84.8474 60.8975 84.7148ZM61.8223 84.21C61.5172 84.3834 61.2083 84.5506 60.8975 84.7148C61.2083 84.5506 61.5172 84.3834 61.8223 84.21ZM62.6816 83.7061C62.398 83.8784 62.1112 84.0457 61.8223 84.21C62.1112 84.0457 62.398 83.8784 62.6816 83.7061ZM63.7295 83.041C63.5279 83.1737 63.3247 83.3041 63.1201 83.4326C63.3247 83.3041 63.5279 83.1737 63.7295 83.041ZM55.1152 83.1553L54.9297 83.2832C55.0441 83.2024 55.159 83.1222 55.2725 83.041C55.2199 83.0786 55.168 83.1178 55.1152 83.1553ZM65.0645 82.1162C64.6271 82.4347 64.1821 82.7431 63.7295 83.041C64.1821 82.7431 64.6271 82.4347 65.0645 82.1162ZM45.7559 82.2451C51.1241 82.0843 56.1103 80.406 60.3018 77.625C56.1101 80.4065 51.1243 82.0844 45.7559 82.2451ZM66.0391 81.3828C65.7192 81.6335 65.3933 81.8767 65.0645 82.1162C65.3933 81.8768 65.7192 81.6335 66.0391 81.3828ZM79.1943 55.2432C78.9253 65.8554 73.8381 75.2703 66.0391 81.3828C72.9725 75.9485 77.7621 67.9038 78.9287 58.7285C78.9651 58.4422 78.998 58.1547 79.0273 57.8662C79.1445 56.7126 79.2051 55.542 79.2051 54.3574L79.1943 55.2432ZM60.374 77.5781C60.3501 77.5941 60.3257 77.6091 60.3018 77.625C60.3257 77.6091 60.3501 77.5941 60.374 77.5781ZM60.9297 77.1963C60.8911 77.2235 60.8522 77.2504 60.8135 77.2773C60.8522 77.2504 60.8911 77.2235 60.9297 77.1963ZM61.9092 76.4746C61.5881 76.7221 61.2617 76.9627 60.9297 77.1963C61.2617 76.9628 61.5881 76.722 61.9092 76.4746ZM61.9844 76.417C61.9594 76.4363 61.9342 76.4553 61.9092 76.4746C61.9342 76.4553 61.9594 76.4364 61.9844 76.417ZM62.5029 76.0049C63.1492 75.4785 63.7709 74.9231 64.3672 74.3418C63.7709 74.9232 63.1492 75.4784 62.5029 76.0049ZM63.7334 75.7568L63.2852 76.2207C63.4835 76.0175 63.6789 75.8119 63.873 75.6064C63.8262 75.656 63.7805 75.7074 63.7334 75.7568ZM44.8867 33.7676C56.2584 33.7676 65.4766 42.9867 65.4766 54.3584C65.4764 65.7299 56.2583 74.9482 44.8867 74.9482C33.5153 74.948 24.297 65.7298 24.2969 54.3584C24.2969 42.9868 33.5152 33.7678 44.8867 33.7676ZM64.4902 74.2227C64.4496 74.2628 64.4081 74.3019 64.3672 74.3418C64.4081 74.3019 64.4496 74.2628 64.4902 74.2227ZM64.9443 73.7627C64.911 73.7971 64.8782 73.832 64.8447 73.8662C64.8782 73.832 64.911 73.7971 64.9443 73.7627ZM65.3867 73.2959C65.355 73.3302 65.3229 73.3643 65.291 73.3984C65.3229 73.3643 65.355 73.3302 65.3867 73.2959ZM65.8389 72.7939C65.8055 72.8318 65.7719 72.8695 65.7383 72.9072C65.7719 72.8695 65.8055 72.8318 65.8389 72.7939ZM66.2842 72.2754C66.2382 72.3303 66.1919 72.3849 66.1455 72.4395C66.1919 72.3849 66.2382 72.3303 66.2842 72.2754ZM66.7041 71.7617C66.6574 71.8202 66.6106 71.8785 66.5635 71.9365C66.6106 71.8785 66.6574 71.8202 66.7041 71.7617ZM67.8125 70.9004L67.4355 71.4043C67.6885 71.0697 67.9369 70.7319 68.1807 70.3916C68.0589 70.5616 67.9366 70.7318 67.8125 70.9004ZM67.0762 71.2861C67.0525 71.3171 67.0287 71.348 67.0049 71.3789C67.0287 71.348 67.0525 71.3171 67.0762 71.2861ZM67.502 70.7148C67.4675 70.7624 67.4332 70.8101 67.3984 70.8574C67.4332 70.8101 67.4675 70.7624 67.502 70.7148ZM67.8779 70.1816C67.8413 70.2348 67.8046 70.2879 67.7676 70.3408C67.8046 70.2879 67.8413 70.2348 67.8779 70.1816ZM68.2441 69.6377C68.2108 69.6886 68.1772 69.7394 68.1436 69.79C68.1772 69.7394 68.2108 69.6886 68.2441 69.6377ZM68.5938 69.0889C68.568 69.1302 68.5425 69.1717 68.5166 69.2129C68.5425 69.1717 68.568 69.1302 68.5938 69.0889ZM68.9805 68.4492C68.9324 68.5312 68.8838 68.6129 68.835 68.6943C68.8838 68.6129 68.9324 68.5312 68.9805 68.4492ZM69.293 67.9014C69.2515 67.976 69.2101 68.0508 69.168 68.125C69.2101 68.0508 69.2515 67.976 69.293 67.9014ZM69.5684 67.3936C69.5576 67.4139 69.5479 67.4348 69.5371 67.4551C69.5479 67.4348 69.5576 67.4139 69.5684 67.3936ZM69.875 66.7979C69.8591 66.8298 69.8432 66.8617 69.8271 66.8936C69.8432 66.8617 69.8591 66.8298 69.875 66.7979ZM70.1846 66.1562C70.1639 66.2006 70.143 66.2448 70.1221 66.2891C70.143 66.2448 70.1639 66.2006 70.1846 66.1562ZM70.4805 65.498C70.4481 65.5724 70.4158 65.6467 70.3828 65.7207C70.4158 65.6467 70.4481 65.5724 70.4805 65.498ZM70.7275 64.915C70.7002 64.9819 70.6724 65.0486 70.6445 65.1152C70.6724 65.0486 70.7002 64.9819 70.7275 64.915ZM71.4033 63.0781C71.3908 63.1162 71.3789 63.1544 71.3662 63.1924C71.3789 63.1544 71.3908 63.1162 71.4033 63.0781ZM73.6709 60.4639L73.4219 61.0557C73.5252 60.8142 73.6265 60.5711 73.7266 60.3271C73.7079 60.3726 73.6897 60.4185 73.6709 60.4639ZM72.2734 59.7305C72.2608 59.7952 72.2494 59.8602 72.2363 59.9248C72.2494 59.8602 72.2608 59.7952 72.2734 59.7305ZM72.5098 58.3232C72.6278 57.4907 72.7111 56.6466 72.7539 55.792C72.7111 56.6466 72.6278 57.4906 72.5098 58.3232ZM75.8164 54.2549C75.7374 54.5335 75.6559 54.8105 75.5732 55.0859C75.6559 54.8102 75.7373 54.5328 75.8164 54.2539V54.2549ZM72.7822 53.7734C72.7864 53.9676 72.7899 54.1623 72.79 54.3574C72.7899 54.1623 72.7863 53.9676 72.7822 53.7734ZM79.1953 53.6299C79.1969 53.7066 79.1981 53.7835 79.1992 53.8604C79.1981 53.7835 79.1969 53.7066 79.1953 53.6299ZM72.7617 53.1592C72.766 53.2583 72.7702 53.3576 72.7734 53.457C72.7702 53.3576 72.766 53.2583 72.7617 53.1592ZM79.1699 52.8359C79.1741 52.9322 79.1773 53.0285 79.1807 53.125C79.1773 53.0285 79.1741 52.9322 79.1699 52.8359ZM79.124 52.0078C79.133 52.1401 79.141 52.2726 79.1484 52.4053C79.141 52.2726 79.133 52.1401 79.124 52.0078ZM79.0967 51.627C79.094 51.5927 79.0907 51.5586 79.0879 51.5244C79.0907 51.5586 79.094 51.5927 79.0967 51.627ZM72.6631 51.7168C72.6708 51.7981 72.6776 51.8795 72.6846 51.9609C72.6776 51.8795 72.6708 51.7981 72.6631 51.7168ZM72.6035 51.1602C72.5546 50.7357 72.4975 50.314 72.4297 49.8955C72.4973 50.314 72.5548 50.7356 72.6035 51.1602ZM79.0342 50.9209C79.0541 51.1215 79.0714 51.3228 79.0879 51.5244C79.0714 51.3228 79.0541 51.1215 79.0342 50.9209ZM78.9512 50.1768C78.9641 50.2833 78.9753 50.3902 78.9873 50.4971C78.9753 50.3902 78.9641 50.2833 78.9512 50.1768ZM72.3984 49.708C72.409 49.7705 72.4196 49.8329 72.4297 49.8955C72.4196 49.8329 72.409 49.7705 72.3984 49.708ZM71.6436 46.4424C71.9586 47.5058 72.2109 48.5957 72.3984 49.708C72.2106 48.5965 71.9583 47.5071 71.6436 46.4443V46.4424ZM78.8457 49.3926C78.8609 49.4976 78.8764 49.6027 78.8906 49.708C78.8764 49.6027 78.8609 49.4976 78.8457 49.3926ZM78.7158 48.5684C78.7395 48.7078 78.7631 48.8473 78.7852 48.9873C78.7632 48.8473 78.7395 48.7078 78.7158 48.5684ZM78.5908 47.874C78.6349 48.1047 78.6764 48.3361 78.7158 48.5684C78.6763 48.3361 78.6349 48.1046 78.5908 47.874ZM78.5273 47.5439C78.5495 47.6537 78.5698 47.7639 78.5908 47.874C78.5698 47.7639 78.5495 47.6537 78.5273 47.5439ZM78.3691 46.8057C78.3969 46.9291 78.4238 47.0528 78.4502 47.1768C78.4238 47.0528 78.3969 46.9291 78.3691 46.8057ZM78.1982 46.084C78.2224 46.1815 78.2462 46.2791 78.2695 46.377C78.2462 46.2791 78.2224 46.1815 78.1982 46.084ZM77.7783 44.5439C77.9298 45.0525 78.07 45.5658 78.1982 46.084C78.0699 45.5659 77.9299 45.0525 77.7783 44.5439ZM77.7119 44.3203C77.7346 44.3947 77.7561 44.4694 77.7783 44.5439C77.7561 44.4694 77.7346 44.3947 77.7119 44.3203ZM77.4951 43.6377C77.5145 43.6966 77.5337 43.7555 77.5527 43.8145C77.5337 43.7555 77.5145 43.6966 77.4951 43.6377ZM77.2432 42.9004C77.2747 42.9895 77.307 43.0785 77.3379 43.168C77.307 43.0785 77.2747 42.9895 77.2432 42.9004ZM76.6797 41.4199C76.8785 41.908 77.0665 42.4014 77.2432 42.9004C77.0664 42.4015 76.8785 41.9079 76.6797 41.4199ZM76.5957 41.2129C76.6242 41.2817 76.6516 41.3509 76.6797 41.4199C76.6516 41.3509 76.6242 41.2817 76.5957 41.2129ZM76.3496 40.6357C76.017 39.8745 75.6575 39.1278 75.2725 38.3965C75.6574 39.1278 76.0171 39.8744 76.3496 40.6357ZM74.8203 37.5664C74.8666 37.6487 74.9134 37.7308 74.959 37.8135C74.9134 37.7307 74.8666 37.6487 74.8203 37.5664ZM73.9658 36.1279C74.2622 36.5997 74.5466 37.0796 74.8203 37.5664C74.5466 37.0796 74.2622 36.5997 73.9658 36.1279ZM73.917 36.0508C73.9333 36.0765 73.9496 36.1022 73.9658 36.1279C73.9496 36.1022 73.9333 36.0765 73.917 36.0508ZM73.5508 35.4844C73.5728 35.5178 73.5943 35.5515 73.6162 35.585C73.5943 35.5515 73.5728 35.5178 73.5508 35.4844ZM42.1904 88.5684C41.9207 88.5474 41.6518 88.5243 41.3838 88.4971C41.6518 88.5243 41.9207 88.5474 42.1904 88.5684ZM71.3662 63.1924C71.302 63.3851 71.2353 63.5767 71.167 63.7676C71.2353 63.5767 71.302 63.3851 71.3662 63.1924ZM71.1465 63.8232C71.0788 64.0111 71.009 64.1978 70.9375 64.3838C71.009 64.1979 71.0788 64.0111 71.1465 63.8232ZM72.2363 59.9248C72.199 60.1095 72.1591 60.2932 72.1182 60.4766C72.1591 60.2932 72.199 60.1095 72.2363 59.9248ZM72.0928 60.5938C72.0519 60.7732 72.0082 60.9517 71.9639 61.1299C72.0082 60.9517 72.0519 60.7732 72.0928 60.5938ZM71.9326 61.2568C71.8837 61.4495 71.8322 61.641 71.7793 61.832C71.8322 61.641 71.8837 61.4494 71.9326 61.2568ZM71.7559 61.917C71.7036 62.1033 71.6497 62.2889 71.5938 62.4736C71.6497 62.2889 71.7036 62.1033 71.7559 61.917ZM72.7812 55.083V55.0957C72.7755 55.3236 72.7661 55.5508 72.7549 55.7773C72.7663 55.5466 72.7755 55.3152 72.7812 55.083ZM74.959 37.8135C75.0484 37.9756 75.1358 38.139 75.2227 38.3027C75.1358 38.139 75.0484 37.9756 74.959 37.8135Z" fill="white"/>
<path d="M78.4071 19.7539C76.1077 -19.9256 82.0291 21.845 82.0291 21.845C90.8025 80.7137 90.8025 80.7137 39.522 95.4695C39.522 95.4695 1.70481 107.705 35.9 93.3783C70.0952 79.0519 80.7065 59.4333 78.4071 19.7539Z" fill="white"/>
</g>
<path d="M143.197 77.8214C146.345 79.9962 149.594 81.212 152.946 81.4688C156.272 81.7662 159.448 81.1368 162.475 79.5804C165.476 78.0647 168.03 75.6811 170.136 72.4296C171.743 69.9503 172.897 67.1 173.6 63.8788C174.303 60.6575 174.632 56.7663 174.588 52.2052L174.232 27.2476L166.642 22.0032L167.195 46.656L165.607 46.9707C165.234 46.4778 164.789 45.9639 164.27 45.429C163.765 44.9623 163.213 44.5225 162.616 44.1095C159.787 42.1549 156.809 41.0977 153.683 40.938C150.596 40.8057 147.639 41.4981 144.81 43.0151C142.021 44.5597 139.626 46.8764 137.625 49.9653C135.519 53.2168 134.359 56.564 134.148 60.0068C133.909 63.4902 134.558 66.7625 136.093 69.8237C137.642 72.9531 140.01 75.619 143.197 77.8214ZM163.323 67.722C162.007 69.7542 160.476 71.2265 158.731 72.1391C157 73.1199 155.141 73.5415 153.153 73.4039C151.206 73.2939 149.276 72.5782 147.364 71.2568C145.491 69.9629 144.114 68.3936 143.233 66.549C142.391 64.732 142.059 62.7962 142.237 60.7418C142.388 58.7281 143.122 56.7051 144.438 54.6729C145.728 52.6814 147.259 51.209 149.03 50.2558C150.775 49.3432 152.621 48.9419 154.569 49.0519C156.53 49.2301 158.446 49.9662 160.319 51.2601C162.231 52.5815 163.622 54.1304 164.489 55.9068C165.371 57.7514 165.716 59.6668 165.525 61.6531C165.348 63.7075 164.614 65.7304 163.323 67.722Z" fill="white"/>
<path d="M201.624 20.4999C205.42 20.4999 208.783 21.3407 211.713 23.0222C214.644 24.6557 216.95 26.9618 218.632 29.9405C220.313 32.8712 221.154 36.2583 221.154 40.1018C221.154 43.0325 220.578 46.0112 219.425 49.038C218.271 52.0648 216.446 55.4278 213.947 59.1272L200.183 79.3057H191.031L204.795 59.4875L203.642 58.3345C203.066 58.5267 202.417 58.6948 201.696 58.8389C201.024 58.935 200.327 58.9831 199.606 58.9831C196.195 58.9831 193.144 58.1663 190.454 56.5328C187.812 54.8993 185.722 52.6653 184.184 49.8307C182.695 46.9961 181.95 43.7532 181.95 40.1018C181.95 36.2583 182.791 32.8712 184.473 29.9405C186.154 26.9618 188.46 24.6557 191.391 23.0222C194.37 21.3407 197.781 20.4999 201.624 20.4999ZM212.939 40.1018C212.939 37.6996 212.458 35.6337 211.497 33.9041C210.584 32.1265 209.263 30.7332 207.534 29.7243C205.852 28.7154 203.858 28.2109 201.552 28.2109C199.294 28.2109 197.3 28.7154 195.571 29.7243C193.889 30.7332 192.568 32.1265 191.607 33.9041C190.646 35.6337 190.166 37.6996 190.166 40.1018C190.166 42.456 190.646 44.5219 191.607 46.2995C192.568 48.0291 193.889 49.3983 195.571 50.4072C197.3 51.3681 199.294 51.8486 201.552 51.8486C203.858 51.8486 205.852 51.3681 207.534 50.4072C209.263 49.3983 210.584 48.0291 211.497 46.2995C212.458 44.5219 212.939 42.456 212.939 40.1018Z" fill="white"/>
<path d="M307.906 81.5196C304.488 81.5196 301.523 80.7372 299.011 79.1723C296.499 77.5663 294.543 75.3013 293.142 72.3775C291.783 69.4537 291.104 65.9945 291.104 62C291.104 58.0055 291.783 54.5463 293.142 51.6225C294.543 48.6987 296.499 46.4544 299.011 44.8895C301.523 43.2835 304.488 42.4805 307.906 42.4805C311.365 42.4805 314.33 43.2835 316.801 44.8895C319.313 46.4544 321.248 48.6987 322.607 51.6225C324.007 54.5463 324.707 58.0055 324.707 62C324.707 65.9945 324.007 69.4537 322.607 72.3775C321.248 75.3013 319.313 77.5663 316.801 79.1723C314.33 80.7372 311.365 81.5196 307.906 81.5196ZM307.906 75.1572C311.077 75.1572 313.547 74.0041 315.318 71.698C317.089 69.3919 317.974 66.1593 317.974 62C317.974 57.8408 317.089 54.6081 315.318 52.302C313.547 49.9959 311.077 48.8428 307.906 48.8428C304.735 48.8428 302.264 49.9959 300.493 52.302C298.722 54.6081 297.837 57.8408 297.837 62C297.837 66.1593 298.722 69.3919 300.493 71.698C302.264 74.0041 304.735 75.1572 307.906 75.1572ZM343.992 81.5196C340.615 81.5196 337.691 80.7372 335.22 79.1723C332.75 77.6074 330.835 75.3837 329.476 72.5011C328.117 69.5772 327.437 66.1387 327.437 62.1853C327.437 58.1496 328.137 54.6699 329.537 51.7461C330.938 48.7811 332.914 46.4956 335.467 44.8895C338.062 43.2835 341.109 42.4805 344.61 42.4805C347.657 42.4805 350.334 43.1188 352.64 44.3954C354.946 45.6308 356.758 47.4015 358.076 49.7076C359.393 51.9726 360.114 54.6699 360.238 57.7996H353.999C353.463 54.9582 352.351 52.755 350.663 51.1901C349.016 49.6253 346.916 48.8428 344.362 48.8428C341.109 48.8428 338.597 50.0165 336.826 52.3638C335.056 54.7111 334.17 57.9849 334.17 62.1853C334.17 66.2622 335.035 69.4537 336.765 71.7598C338.494 74.0247 340.903 75.1572 343.992 75.1572C346.298 75.1572 348.233 74.4777 349.798 73.1188C351.404 71.7186 352.516 69.7831 353.134 67.3123H359.373C359.167 70.1949 358.384 72.707 357.025 74.8483C355.666 76.9485 353.855 78.5958 351.59 79.79C349.366 80.9431 346.833 81.5196 343.992 81.5196ZM369.762 69.1654C370.339 71.1009 371.389 72.5834 372.913 73.6129C374.436 74.6424 376.392 75.1572 378.781 75.1572C381.252 75.1572 383.146 74.7248 384.464 73.86C385.782 72.954 386.44 71.6774 386.44 70.0302C386.44 68.9183 385.905 67.9918 384.834 67.2505C383.764 66.5093 382.178 65.9945 380.078 65.7063L375.569 65.0268C371.533 64.4091 368.547 63.2148 366.612 61.4441C364.676 59.6733 363.709 57.2025 363.709 54.0316C363.709 50.4489 365.027 47.628 367.662 45.569C370.339 43.51 374.004 42.4805 378.657 42.4805C383.393 42.4805 387.14 43.6335 389.9 45.9396C392.659 48.2457 394.121 51.4578 394.285 55.5759H388.108C387.532 53.3933 386.44 51.7255 384.834 50.5724C383.228 49.4194 381.128 48.8428 378.534 48.8428C375.939 48.8428 373.942 49.2958 372.542 50.2018C371.142 51.0666 370.442 52.3226 370.442 53.9698C370.442 55.0817 370.977 56.0083 372.048 56.7495C373.118 57.4908 374.704 58.0055 376.804 58.2938L381.313 58.9733C385.39 59.591 388.376 60.7852 390.27 62.556C392.206 64.3267 393.173 66.7975 393.173 69.9684C393.173 72.3569 392.576 74.4159 391.382 76.1455C390.229 77.8751 388.582 79.2135 386.44 80.1606C384.299 81.0666 381.725 81.5196 378.719 81.5196C374.107 81.5196 370.462 80.4283 367.786 78.2457C365.15 76.0632 363.709 73.0364 363.462 69.1654H369.762Z" fill="#878B93"/>
<path d="M256.649 77.8214C259.797 79.9962 263.046 81.212 266.398 81.4688C269.724 81.7662 272.901 81.1368 275.928 79.5804C278.928 78.0647 281.482 75.6811 283.589 72.4296C285.195 69.9503 286.349 67.1 287.052 63.8788C287.755 60.6575 288.084 56.7663 288.04 52.2052L287.685 27.2476L280.095 22.0032L280.647 46.656L279.059 46.9707C278.686 46.4778 278.241 45.9639 277.722 45.429C277.217 44.9623 276.666 44.5225 276.068 44.1095C273.239 42.1549 270.261 41.0977 267.135 40.938C264.048 40.8057 261.091 41.4981 258.262 43.0151C255.473 44.5597 253.079 46.8764 251.077 49.9653C248.971 53.2168 247.811 56.564 247.6 60.0068C247.362 63.4902 248.01 66.7625 249.545 69.8237C251.094 72.9531 253.462 75.619 256.649 77.8214ZM276.776 67.722C275.459 69.7542 273.928 71.2265 272.183 72.1391C270.452 73.1199 268.593 73.5415 266.606 73.4039C264.658 73.2939 262.728 72.5782 260.816 71.2568C258.943 69.9629 257.566 68.3936 256.685 66.549C255.843 64.732 255.511 62.7962 255.689 60.7418C255.84 58.7281 256.574 56.7051 257.89 54.6729C259.181 52.6814 260.711 51.209 262.482 50.2558C264.227 49.3432 266.073 48.9419 268.021 49.0519C269.982 49.2301 271.899 49.9662 273.771 51.2601C275.684 52.5815 277.074 54.1304 277.942 55.9068C278.823 57.7514 279.168 59.6668 278.977 61.6531C278.8 63.7075 278.066 65.7304 276.776 67.722Z" fill="#878B93"/>
<defs>
<clipPath id="clip0_76_272">
<rect width="99.1078" height="99.1078" fill="white" transform="translate(0 2.4707)"/>
</clipPath>
</defs>
</svg>
