<svg width="722" height="722" viewBox="0 0 722 722" fill="none" xmlns="http://www.w3.org/2000/svg">
<g clip-path="url(#clip0_34_160)">
<path d="M324.831 627.991C324.613 627.99 324.394 627.987 324.176 627.984C324.394 627.987 324.613 627.99 324.831 627.991ZM322.419 627.96C322.357 627.959 322.295 627.958 322.232 627.957C322.295 627.958 322.357 627.959 322.419 627.96ZM320.266 627.914C319.989 627.907 319.713 627.899 319.438 627.891C319.713 627.899 319.989 627.907 320.266 627.914ZM318.161 627.851C317.945 627.843 317.728 627.836 317.512 627.828C317.728 627.836 317.945 627.843 318.161 627.851ZM313.472 627.647C314.816 627.718 316.162 627.779 317.512 627.828C316.162 627.779 314.816 627.718 313.472 627.647ZM313.472 627.647C313.31 627.639 313.147 627.63 312.985 627.621C313.147 627.63 313.31 627.639 313.472 627.647ZM308.824 627.359C310.208 627.458 311.595 627.545 312.985 627.621C311.595 627.545 310.208 627.458 308.824 627.359ZM337.378 626.166L334.883 627.5C335.717 627.056 336.549 626.611 337.378 626.165L339.858 624.826C339.034 625.273 338.207 625.72 337.378 626.166ZM346.048 627.271V627.271V627.271ZM308.824 627.359C308.764 627.355 308.704 627.351 308.645 627.347C308.704 627.351 308.764 627.355 308.824 627.359ZM306.584 627.189C306.549 627.187 306.514 627.184 306.479 627.182C306.514 627.184 306.549 627.187 306.584 627.189ZM302.28 626.807C302.137 626.793 301.993 626.779 301.85 626.765C301.993 626.779 302.137 626.793 302.28 626.807ZM299.954 626.569C299.909 626.564 299.863 626.56 299.817 626.555C299.863 626.56 299.909 626.564 299.954 626.569ZM297.775 626.327C297.647 626.312 297.519 626.296 297.391 626.281C297.519 626.296 297.647 626.312 297.775 626.327ZM295.582 626.062C295.505 626.053 295.428 626.043 295.351 626.033C295.428 626.043 295.505 626.053 295.582 626.062ZM291.342 625.496C292.675 625.686 294.011 625.865 295.351 626.033C294.011 625.865 292.675 625.686 291.342 625.496ZM291.342 625.496C291.149 625.469 290.956 625.441 290.764 625.413C290.956 625.441 291.149 625.469 291.342 625.496ZM289.002 625.152C288.938 625.143 288.874 625.133 288.81 625.123C288.874 625.133 288.938 625.143 289.002 625.152ZM286.693 624.79C286.663 624.785 286.633 624.78 286.604 624.775C286.633 624.78 286.663 624.785 286.693 624.79ZM284.714 624.461C284.604 624.442 284.493 624.424 284.383 624.405C284.493 624.424 284.604 624.442 284.714 624.461ZM280.27 623.665C281.637 623.923 283.008 624.17 284.383 624.405C283.008 624.17 281.637 623.923 280.27 623.665ZM280.27 623.665C280.201 623.652 280.133 623.639 280.064 623.626C280.133 623.639 280.201 623.652 280.27 623.665ZM275.955 622.812C277.321 623.094 278.691 623.366 280.064 623.626C278.691 623.366 277.321 623.094 275.955 622.812ZM275.955 622.812C275.878 622.795 275.8 622.78 275.723 622.764C275.8 622.78 275.878 622.795 275.955 622.812ZM271.607 621.871C272.975 622.18 274.347 622.477 275.723 622.764C274.347 622.477 272.975 622.18 271.607 621.871ZM271.607 621.871C271.568 621.862 271.529 621.854 271.489 621.845C271.529 621.854 271.568 621.862 271.607 621.871ZM267.345 620.87C268.722 621.207 270.103 621.531 271.489 621.845C270.103 621.531 268.722 621.207 267.345 620.87ZM265.43 620.393C265.276 620.354 265.122 620.315 264.968 620.275C265.122 620.315 265.276 620.354 265.43 620.393ZM261.015 619.233C262.328 619.591 263.646 619.938 264.968 620.275C263.646 619.938 262.328 619.591 261.015 619.233ZM261.015 619.233C260.985 619.225 260.955 619.217 260.925 619.209C260.955 619.217 260.985 619.225 261.015 619.233ZM259.056 618.69C258.967 618.666 258.879 618.641 258.791 618.616C258.879 618.641 258.967 618.666 259.056 618.69ZM326.826 128C432.689 128 523.171 193.893 559.555 286.928C552.034 267.697 542.202 249.626 530.4 233.057C529.144 264.657 526.176 293.617 521.431 320.29C496.57 236.328 418.852 175.07 326.826 175.07C214.751 175.07 123.896 265.925 123.896 378C123.896 490.075 214.751 580.93 326.826 580.93C328.505 580.93 330.179 580.908 331.848 580.867C309.302 593.739 284.365 606.088 256.807 618.047C257.467 618.239 258.128 618.429 258.791 618.616C153.881 588.97 77 492.47 77 378C77 239.929 188.851 128 326.826 128ZM368.47 608.382C367.373 609.05 366.271 609.716 365.165 610.381C366.271 609.716 367.373 609.049 368.47 608.381C368.81 608.173 369.149 607.965 369.488 607.757C369.149 607.965 368.81 608.174 368.47 608.382ZM451.179 594.878C450.307 595.38 449.431 595.876 448.553 596.367C449.431 595.876 450.307 595.38 451.179 594.878ZM331.853 580.866C361.788 580.138 390.116 572.927 415.487 560.584C390.116 572.927 361.789 580.138 331.853 580.866ZM475.096 579.229V579.23V579.229ZM415.987 560.339C415.821 560.421 415.654 560.503 415.487 560.584C415.654 560.503 415.821 560.421 415.987 560.339ZM418.223 559.227C418.018 559.33 417.813 559.433 417.608 559.536C417.813 559.433 418.018 559.33 418.223 559.227ZM420.362 558.129C420.179 558.224 419.997 558.32 419.813 558.415C419.997 558.32 420.179 558.224 420.362 558.129ZM422.631 556.93C422.387 557.06 422.144 557.192 421.9 557.321C422.144 557.192 422.387 557.06 422.631 556.93ZM424.692 555.809C424.476 555.928 424.261 556.048 424.044 556.166C424.261 556.048 424.476 555.928 424.692 555.809ZM426.817 554.62C426.606 554.74 426.395 554.86 426.184 554.979C426.395 554.86 426.606 554.74 426.817 554.62ZM428.847 553.453C428.67 553.556 428.494 553.66 428.316 553.763C428.494 553.66 428.67 553.556 428.847 553.453ZM430.971 552.198C430.781 552.312 430.591 552.427 430.4 552.54C430.591 552.427 430.781 552.312 430.971 552.198ZM433.006 550.963C432.828 551.073 432.649 551.183 432.471 551.292C432.649 551.183 432.828 551.073 433.006 550.963ZM434.959 549.746C434.83 549.828 434.701 549.91 434.571 549.991C434.701 549.91 434.83 549.828 434.959 549.746ZM437.031 548.421C436.888 548.514 436.746 548.608 436.603 548.7C436.746 548.608 436.888 548.514 437.031 548.421ZM439.063 547.087C438.92 547.183 438.776 547.279 438.632 547.374C438.776 547.279 438.92 547.183 439.063 547.087ZM441.283 545.588C441.043 545.752 440.804 545.919 440.562 546.082C440.804 545.919 441.043 545.752 441.283 545.588ZM443.088 544.34C442.925 544.454 442.763 544.569 442.6 544.683C442.763 544.569 442.925 544.454 443.088 544.34ZM445.094 542.917C444.92 543.042 444.746 543.168 444.571 543.293C444.746 543.168 444.92 543.042 445.094 542.917ZM446.979 541.546C446.834 541.653 446.688 541.761 446.542 541.868C446.688 541.761 446.834 541.653 446.979 541.546ZM448.998 540.041C448.816 540.179 448.635 540.317 448.452 540.454C448.635 540.317 448.816 540.179 448.998 540.041ZM450.701 538.741C450.608 538.813 450.516 538.885 450.423 538.957C450.516 538.885 450.608 538.813 450.701 538.741ZM452.896 537.023C452.689 537.188 452.483 537.352 452.275 537.516C452.483 537.352 452.689 537.188 452.896 537.023ZM460.147 530.988C467.162 524.87 473.753 518.278 479.868 511.261C473.753 518.278 467.162 524.87 460.147 530.988ZM326.826 227.671C409.611 227.671 476.722 294.828 476.722 377.671C476.722 460.513 409.611 527.671 326.826 527.671C244.041 527.671 176.931 460.514 176.931 377.671C176.931 294.828 244.041 227.671 326.826 227.671ZM480.133 510.958C480.045 511.059 479.956 511.16 479.868 511.261C479.956 511.16 480.045 511.059 480.133 510.958ZM481.7 509.131C481.577 509.277 481.452 509.421 481.328 509.566C481.452 509.421 481.577 509.277 481.7 509.131ZM483.275 507.25C483.124 507.433 482.971 507.615 482.818 507.798C482.971 507.615 483.124 507.433 483.275 507.25ZM484.737 505.46C484.658 505.558 484.578 505.656 484.498 505.754C484.578 505.656 484.658 505.558 484.737 505.46ZM486.333 503.46C486.138 503.708 485.941 503.954 485.745 504.2C485.941 503.954 486.138 503.708 486.333 503.46ZM487.81 501.562C487.584 501.856 487.357 502.147 487.13 502.439C487.357 502.147 487.584 501.856 487.81 501.562ZM489.215 499.713C489.066 499.911 488.915 500.109 488.766 500.307C488.915 500.109 489.066 499.911 489.215 499.713ZM490.702 497.707C490.522 497.953 490.339 498.198 490.158 498.443C490.339 498.198 490.522 497.953 490.702 497.707ZM492.168 495.678C491.94 495.997 491.71 496.314 491.48 496.632C491.71 496.314 491.94 495.997 492.168 495.678ZM493.515 493.765C493.344 494.01 493.173 494.254 493.001 494.498C493.173 494.254 493.344 494.01 493.515 493.765ZM494.871 491.79C494.695 492.05 494.517 492.308 494.34 492.566C494.517 492.308 494.695 492.05 494.871 491.79ZM496.266 489.707C496.05 490.034 495.831 490.359 495.613 490.685C495.831 490.359 496.05 490.034 496.266 489.707ZM497.562 487.721C497.357 488.038 497.15 488.353 496.944 488.669C497.15 488.353 497.357 488.038 497.562 487.721ZM498.894 485.623C498.682 485.961 498.468 486.297 498.255 486.633C498.468 486.297 498.682 485.961 498.894 485.623ZM500.158 483.578C499.946 483.926 499.732 484.273 499.518 484.619C499.732 484.273 499.946 483.926 500.158 483.578ZM501.415 481.491C501.211 481.834 501.006 482.176 500.8 482.518C501.006 482.176 501.211 481.834 501.415 481.491ZM502.611 479.451C502.432 479.761 502.251 480.069 502.07 480.378C502.251 480.069 502.432 479.761 502.611 479.451ZM503.835 477.304C503.655 477.624 503.474 477.943 503.292 478.262C503.474 477.943 503.655 477.624 503.835 477.304ZM504.98 475.239C504.822 475.529 504.662 475.818 504.502 476.106C504.662 475.818 504.822 475.529 504.98 475.239ZM506.201 472.973C506.016 473.322 505.83 473.67 505.643 474.018C505.83 473.67 506.016 473.322 506.201 472.973ZM507.313 470.846C507.119 471.222 506.924 471.598 506.728 471.973C506.924 471.598 507.119 471.222 507.313 470.846ZM508.405 468.696C508.235 469.036 508.064 469.375 507.892 469.714C508.064 469.375 508.235 469.036 508.405 468.696ZM509.461 466.556C509.307 466.873 509.152 467.19 508.996 467.506C509.152 467.19 509.307 466.873 509.461 466.556ZM516.037 451.491C514.045 456.617 511.848 461.641 509.461 466.556C511.848 461.641 514.045 456.617 516.037 451.491ZM521.521 453.15C521.196 453.765 520.871 454.38 520.543 454.992V454.991C520.871 454.379 521.196 453.765 521.521 453.15ZM516.104 451.32C516.081 451.377 516.059 451.434 516.037 451.491C516.059 451.434 516.081 451.377 516.104 451.32ZM523.742 448.88C523.426 449.499 523.106 450.116 522.786 450.732C523.106 450.116 523.426 449.499 523.742 448.88ZM516.979 449.018C516.961 449.068 516.943 449.119 516.924 449.17C516.943 449.119 516.961 449.068 516.979 449.018ZM517.818 446.731C517.797 446.791 517.775 446.851 517.753 446.911C517.775 446.851 517.797 446.791 517.818 446.731ZM519.365 442.271C518.866 443.765 518.351 445.252 517.818 446.731C518.351 445.252 518.866 443.765 519.365 442.271ZM519.419 442.111C519.401 442.164 519.383 442.217 519.365 442.271C519.383 442.217 519.401 442.164 519.419 442.111ZM520.442 438.945C520.109 440.004 519.769 441.06 519.419 442.111C519.769 441.06 520.109 440.004 520.442 438.945ZM520.584 438.495C520.537 438.645 520.49 438.795 520.442 438.945C520.49 438.795 520.537 438.645 520.584 438.495ZM520.931 437.371C520.879 437.542 520.826 437.712 520.773 437.883C520.826 437.712 520.879 437.542 520.931 437.371ZM521.303 436.139C521.253 436.304 521.204 436.47 521.154 436.635C521.204 436.47 521.253 436.304 521.303 436.139ZM521.671 434.891C521.603 435.123 521.534 435.355 521.466 435.587C521.534 435.355 521.603 435.123 521.671 434.891ZM522.014 433.702C521.95 433.925 521.886 434.148 521.822 434.37C521.886 434.148 521.95 433.925 522.014 433.702ZM522.354 432.493C522.312 432.644 522.27 432.795 522.228 432.945C522.27 432.795 522.312 432.644 522.354 432.493ZM522.68 431.307C522.603 431.59 522.524 431.873 522.446 432.156C522.524 431.873 522.603 431.59 522.68 431.307ZM523.313 428.917C523.258 429.132 523.202 429.347 523.146 429.562C523.202 429.347 523.258 429.132 523.313 428.917ZM523.632 427.664C523.571 427.904 523.511 428.144 523.45 428.384C523.511 428.144 523.571 427.904 523.632 427.664ZM524.206 425.325C524.165 425.497 524.124 425.67 524.082 425.842C524.124 425.67 524.165 425.497 524.206 425.325ZM524.511 424.033C524.459 424.258 524.406 424.483 524.353 424.708C524.405 424.483 524.459 424.258 524.511 424.033ZM524.751 422.98C524.721 423.114 524.691 423.247 524.66 423.381C524.691 423.247 524.721 423.114 524.751 422.98ZM525.016 421.793C524.99 421.909 524.964 422.025 524.938 422.142C524.964 422.025 524.99 421.909 525.016 421.793ZM525.3 420.48C525.264 420.65 525.228 420.82 525.191 420.989C525.228 420.82 525.264 420.65 525.3 420.48ZM525.575 419.17C525.534 419.371 525.492 419.571 525.45 419.771C525.492 419.571 525.534 419.371 525.575 419.17ZM525.821 417.955C525.774 418.19 525.726 418.425 525.679 418.66C525.726 418.425 525.774 418.19 525.821 417.955ZM526.047 416.809C526.014 416.98 525.98 417.151 525.946 417.322C525.98 417.151 526.014 416.98 526.047 416.809ZM526.302 415.467C526.264 415.669 526.227 415.871 526.188 416.072C526.227 415.871 526.264 415.669 526.302 415.467ZM526.538 414.176C526.492 414.433 526.446 414.69 526.398 414.946C526.446 414.69 526.492 414.433 526.538 414.176ZM526.954 411.783C526.914 412.025 526.873 412.266 526.832 412.507C526.873 412.266 526.914 412.025 526.954 411.783ZM527.136 410.683C527.114 410.818 527.092 410.954 527.069 411.09C527.092 410.954 527.114 410.818 527.136 410.683ZM527.341 409.388C527.317 409.539 527.294 409.69 527.271 409.841C527.294 409.69 527.317 409.539 527.341 409.388ZM527.535 408.109C527.511 408.274 527.486 408.439 527.461 408.604C527.486 408.439 527.511 408.274 527.535 408.109ZM527.739 406.707C527.704 406.959 527.668 407.212 527.631 407.464C527.668 407.212 527.704 406.959 527.739 406.707ZM527.889 405.627C527.869 405.773 527.849 405.92 527.829 406.066C527.849 405.92 527.869 405.773 527.889 405.627ZM528.082 404.166C528.051 404.406 528.02 404.646 527.988 404.886C528.02 404.646 528.051 404.406 528.082 404.166ZM528.531 400.396C528.504 400.644 528.477 400.892 528.449 401.14C528.477 400.892 528.504 400.644 528.531 400.396ZM528.901 396.722C528.886 396.893 528.871 397.064 528.854 397.235C528.871 397.064 528.886 396.893 528.901 396.722ZM529.141 393.888C529.118 394.185 529.095 394.483 529.07 394.78C529.095 394.483 529.118 394.185 529.141 393.888ZM529.398 390.095C529.38 390.403 529.362 390.711 529.343 391.02C529.362 390.711 529.38 390.403 529.398 390.095ZM529.572 386.646C529.602 385.93 529.63 385.213 529.652 384.494C529.63 385.213 529.602 385.93 529.572 386.646ZM529.748 379.603C529.745 379.943 529.743 380.283 529.738 380.623C529.743 380.283 529.745 379.943 529.748 379.603ZM576.646 376.383L576.651 378C576.651 377.229 576.647 376.459 576.64 375.689C576.642 375.921 576.645 376.152 576.646 376.383ZM529.746 376.24C529.751 376.826 529.755 377.413 529.755 378C529.755 377.413 529.751 376.826 529.746 376.24ZM552.655 373.879L551.991 376.243C552.312 375.112 552.628 373.977 552.941 372.839C552.846 373.186 552.751 373.533 552.655 373.879ZM529.743 375.968C529.744 376.059 529.745 376.149 529.746 376.24C529.745 376.149 529.744 376.059 529.743 375.968ZM576.635 375.266C576.636 375.407 576.638 375.548 576.64 375.689C576.638 375.548 576.636 375.407 576.635 375.266ZM576.588 372.38C576.593 372.604 576.598 372.828 576.603 373.053C576.598 372.828 576.593 372.604 576.588 372.38ZM529.668 372.058C529.673 372.227 529.678 372.397 529.683 372.567C529.678 372.397 529.673 372.227 529.668 372.058ZM529.615 370.428C529.574 369.301 529.524 368.176 529.464 367.054C529.524 368.176 529.574 369.301 529.615 370.428ZM576.533 370.277C576.538 370.435 576.542 370.592 576.547 370.749C576.542 370.592 576.538 370.435 576.533 370.277ZM576.435 367.542C576.441 367.707 576.45 367.873 576.456 368.038C576.45 367.873 576.441 367.707 576.435 367.542ZM529.436 366.539C529.445 366.711 529.455 366.882 529.464 367.054C529.455 366.882 529.445 366.711 529.436 366.539ZM529.32 364.635C529.328 364.746 529.336 364.857 529.343 364.968C529.336 364.857 529.328 364.746 529.32 364.635ZM529.198 362.873C529.209 363.023 529.22 363.174 529.23 363.324C529.22 363.174 529.209 363.023 529.198 362.873ZM576.184 362.609C576.193 362.772 576.204 362.935 576.214 363.098C576.204 362.935 576.193 362.772 576.184 362.609ZM528.923 359.512C529.024 360.63 529.115 361.75 529.198 362.873C529.115 361.75 529.024 360.63 528.923 359.512ZM575.879 358.212C575.993 359.674 576.094 361.14 576.184 362.609C576.094 361.14 575.993 359.674 575.879 358.212ZM528.896 359.23C528.905 359.324 528.914 359.418 528.923 359.512C528.914 359.418 528.905 359.324 528.896 359.23ZM575.833 357.636C575.848 357.828 575.864 358.02 575.879 358.212C575.864 358.02 575.848 357.828 575.833 357.636ZM528.728 357.466C528.739 357.583 528.75 357.7 528.762 357.816C528.75 357.7 528.739 357.583 528.728 357.466ZM521.431 320.29C524.974 332.258 527.443 344.687 528.728 357.466C527.443 344.687 524.974 332.259 521.431 320.291V320.29ZM575.398 352.821C575.412 352.954 575.424 353.086 575.438 353.219C575.424 353.086 575.412 352.954 575.398 352.821ZM575.128 350.253C575.143 350.39 575.159 350.526 575.174 350.663C575.159 350.526 575.143 350.39 575.128 350.253ZM574.857 347.893C574.876 348.047 574.894 348.202 574.912 348.356C574.894 348.202 574.876 348.047 574.857 347.893ZM574.537 345.342C574.556 345.485 574.575 345.628 574.594 345.771C574.575 345.628 574.556 345.485 574.537 345.342ZM573.852 340.46C573.878 340.634 573.904 340.808 573.93 340.982C573.904 340.808 573.878 340.634 573.852 340.46ZM573.136 335.972C573.388 337.463 573.626 338.96 573.852 340.46C573.626 338.96 573.388 337.463 573.136 335.972ZM561.785 334.664C561.462 336.354 561.131 338.036 560.794 339.712V339.711C560.963 338.873 561.13 338.034 561.295 337.192C561.46 336.351 561.624 335.508 561.785 334.663V334.664ZM573.09 335.704C573.105 335.793 573.121 335.882 573.136 335.972C573.121 335.882 573.105 335.793 573.09 335.704ZM572.232 330.945C572.254 331.06 572.275 331.176 572.297 331.291C572.275 331.176 572.254 331.06 572.232 330.945ZM571.729 328.381C571.764 328.553 571.799 328.725 571.833 328.897C571.799 328.725 571.764 328.553 571.729 328.381ZM571.283 326.213C571.301 326.296 571.318 326.379 571.335 326.462C571.318 326.379 571.301 326.296 571.283 326.213ZM569.721 319.284C570.273 321.582 570.795 323.891 571.283 326.213C570.794 323.891 570.273 321.582 569.721 319.284ZM569.668 319.063C569.686 319.137 569.703 319.211 569.721 319.284C569.703 319.211 569.686 319.137 569.668 319.063ZM568.464 314.284C568.501 314.426 568.537 314.568 568.574 314.71C568.537 314.568 568.501 314.426 568.464 314.284ZM566.604 307.586C567.254 309.806 567.874 312.039 568.464 314.284C567.874 312.039 567.254 309.806 566.604 307.586ZM566.54 307.368C566.561 307.441 566.582 307.513 566.604 307.586C566.582 307.513 566.561 307.441 566.54 307.368ZM559.652 287.178C562.225 293.776 564.526 300.511 566.54 307.368C564.525 300.511 562.225 293.776 559.652 287.178ZM559.555 286.928C559.587 287.011 559.62 287.094 559.652 287.178C559.62 287.094 559.587 287.011 559.555 286.928ZM522.571 451.146C522.276 451.713 521.98 452.279 521.683 452.844C521.98 452.279 522.276 451.712 522.571 451.146ZM522.994 430.136C522.918 430.424 522.84 430.713 522.762 431.001C522.839 430.713 522.918 430.424 522.994 430.136ZM523.903 426.576C523.842 426.824 523.78 427.071 523.719 427.318C523.78 427.071 523.842 426.824 523.903 426.576ZM526.771 412.857C526.714 413.187 526.656 413.517 526.598 413.846C526.656 413.517 526.714 413.187 526.771 412.857ZM528.232 402.969C528.199 403.244 528.165 403.52 528.13 403.795C528.165 403.52 528.199 403.244 528.232 402.969ZM528.449 401.14C528.418 401.411 528.386 401.682 528.354 401.953C528.386 401.682 528.418 401.411 528.449 401.14ZM528.801 397.788C528.772 398.086 528.743 398.383 528.713 398.681C528.743 398.383 528.772 398.086 528.801 397.788ZM528.658 399.206C528.633 399.453 528.608 399.7 528.581 399.947C528.608 399.7 528.633 399.453 528.658 399.206ZM529.07 394.78C529.044 395.098 529.017 395.415 528.989 395.732C529.017 395.415 529.044 395.098 529.07 394.78ZM529.223 392.782C529.204 393.036 529.187 393.29 529.168 393.544C529.187 393.29 529.204 393.036 529.223 392.782ZM529.343 391.02C529.328 391.25 529.312 391.481 529.297 391.711C529.312 391.481 529.328 391.25 529.343 391.02ZM529.718 381.878C529.711 382.244 529.702 382.611 529.693 382.977C529.702 382.611 529.711 382.244 529.718 381.878ZM529.688 383.211C529.68 383.553 529.669 383.895 529.659 384.236C529.669 383.895 529.68 383.553 529.688 383.211ZM529.427 389.615C529.442 389.34 529.457 389.064 529.472 388.788C529.457 389.064 529.442 389.34 529.427 389.615ZM529.495 388.35C529.508 388.083 529.521 387.817 529.533 387.551C529.521 387.817 529.508 388.083 529.495 388.35ZM575.438 353.219C575.509 353.942 575.578 354.667 575.643 355.393C575.578 354.667 575.509 353.942 575.438 353.219ZM568.574 314.71C568.755 315.402 568.934 316.095 569.108 316.79C568.934 316.095 568.755 315.402 568.574 314.71Z" fill="#6644FF"/>
<path d="M571.2 125.908C554.448 -163.157 597.585 141.142 597.585 141.142C661.5 570 661.5 570 287.921 677.496C287.921 677.496 12.4234 766.63 261.535 662.262C510.647 557.894 587.951 414.973 571.2 125.908Z" fill="#6644FF"/>
</g>
<defs>
<clipPath id="clip0_34_160">
<rect width="722" height="722" fill="white"/>
</clipPath>
</defs>
</svg>
