<svg width="722" height="722" viewBox="0 0 722 722" fill="none" xmlns="http://www.w3.org/2000/svg">
<g clip-path="url(#clip0_34_90)">
<path d="M325.002 627.991C324.785 627.99 324.569 627.987 324.353 627.984C324.569 627.987 324.785 627.99 325.002 627.991ZM322.582 627.96C322.524 627.959 322.465 627.959 322.407 627.958C322.465 627.959 322.524 627.959 322.582 627.96ZM320.428 627.914C320.164 627.907 319.9 627.899 319.637 627.892C319.9 627.899 320.164 627.907 320.428 627.914ZM318.294 627.85C318.098 627.843 317.902 627.836 317.706 627.829C317.902 627.836 318.098 627.843 318.294 627.85ZM313.579 627.645C314.952 627.717 316.328 627.779 317.706 627.829C316.328 627.779 314.952 627.717 313.579 627.645ZM313.579 627.645C313.455 627.638 313.332 627.631 313.208 627.624C313.332 627.631 313.455 627.638 313.579 627.645ZM311.351 627.518C311.269 627.513 311.187 627.507 311.105 627.502C311.187 627.507 311.269 627.513 311.351 627.518ZM309.088 627.367C308.947 627.357 308.807 627.346 308.666 627.336C308.807 627.346 308.947 627.357 309.088 627.367ZM306.861 627.199C306.767 627.192 306.673 627.184 306.578 627.177C306.673 627.184 306.767 627.192 306.861 627.199ZM304.479 626.999C304.442 626.996 304.405 626.992 304.367 626.988C304.405 626.992 304.442 626.996 304.479 626.999ZM302.453 626.809C302.3 626.794 302.146 626.778 301.993 626.763C302.146 626.778 302.3 626.794 302.453 626.809ZM299.864 626.544C300.062 626.565 300.26 626.585 300.458 626.605C300.26 626.585 300.062 626.565 299.864 626.544ZM297.874 626.32C297.803 626.312 297.733 626.304 297.662 626.296C297.733 626.304 297.803 626.312 297.874 626.32ZM295.88 626.08C295.728 626.061 295.576 626.043 295.424 626.023C295.576 626.043 295.728 626.061 295.88 626.08ZM291.521 625.5C292.818 625.684 294.12 625.859 295.424 626.023C294.12 625.859 292.818 625.684 291.521 625.5ZM291.521 625.5C291.319 625.471 291.117 625.442 290.915 625.413C291.117 625.442 291.319 625.471 291.521 625.5ZM289.111 625.146C289.068 625.14 289.025 625.134 288.981 625.127C289.025 625.134 289.068 625.14 289.111 625.146ZM286.908 624.801C286.826 624.787 286.743 624.774 286.66 624.761C286.743 624.774 286.826 624.787 286.908 624.801ZM284.934 624.474C284.795 624.45 284.657 624.428 284.519 624.404C284.657 624.428 284.795 624.45 284.934 624.474ZM280.615 623.703C281.913 623.947 283.214 624.181 284.519 624.404C283.214 624.181 281.913 623.947 280.615 623.703ZM280.615 623.703C280.432 623.669 280.248 623.634 280.064 623.6C280.248 623.634 280.432 623.669 280.615 623.703ZM276.107 622.814C277.423 623.086 278.742 623.348 280.064 623.6C278.742 623.348 277.423 623.086 276.107 622.814ZM276.107 622.814C276.03 622.798 275.952 622.783 275.875 622.767C275.952 622.783 276.03 622.798 276.107 622.814ZM271.829 621.891C273.174 622.193 274.522 622.485 275.875 622.767C274.522 622.486 273.174 622.193 271.829 621.891ZM271.829 621.891C271.729 621.868 271.63 621.846 271.53 621.823C271.63 621.846 271.729 621.868 271.829 621.891ZM265.587 620.399C267.559 620.897 269.54 621.372 271.53 621.823C269.54 621.372 267.559 620.897 265.587 620.399ZM265.587 620.399C265.409 620.354 265.231 620.309 265.054 620.264C265.231 620.309 265.409 620.354 265.587 620.399ZM263.445 619.849C263.357 619.825 263.268 619.803 263.18 619.779C263.268 619.803 263.357 619.825 263.445 619.849ZM261.248 619.262C261.139 619.232 261.029 619.202 260.92 619.172C261.029 619.202 261.139 619.232 261.248 619.262ZM259.227 618.703C259.126 618.675 259.025 618.647 258.925 618.618C259.025 618.647 259.126 618.675 259.227 618.703ZM327 128C415.225 128 492.774 173.701 537.271 242.72C535.165 239.454 532.986 236.241 530.735 233.082C529.476 264.742 526.495 293.752 521.73 320.467C496.924 236.374 419.13 175 327 175C214.886 175 124 265.886 124 378C124 490.114 214.886 581 327 581C328.65 581 330.294 580.979 331.935 580.939C309.403 593.787 284.488 606.116 256.957 618.055C257.612 618.245 258.268 618.433 258.925 618.618C153.938 588.975 77 492.473 77 378C77 239.929 188.929 128 327 128ZM364.049 611.172L361.714 612.56C363.275 611.636 364.826 610.709 366.368 609.779C365.597 610.244 364.824 610.709 364.049 611.172ZM331.94 580.938C361.865 580.224 390.186 573.032 415.556 560.714C390.186 573.033 361.866 580.224 331.94 580.938ZM416.262 560.368C416.026 560.484 415.791 560.599 415.556 560.714C415.791 560.599 416.026 560.484 416.262 560.368ZM418.332 559.339C418.161 559.425 417.991 559.512 417.819 559.598C417.991 559.512 418.161 559.425 418.332 559.339ZM420.585 558.184C420.374 558.293 420.163 558.404 419.952 558.513C420.163 558.404 420.374 558.293 420.585 558.184ZM422.782 557.022C422.543 557.151 422.304 557.28 422.064 557.407C422.304 557.28 422.543 557.151 422.782 557.022ZM424.87 555.887C424.662 556.001 424.455 556.118 424.247 556.231C424.455 556.118 424.662 556.001 424.87 555.887ZM427.147 554.612C426.865 554.773 426.583 554.934 426.3 555.093C426.583 554.934 426.865 554.773 427.147 554.612ZM429.216 553.421C428.948 553.577 428.681 553.734 428.412 553.89C428.681 553.734 428.948 553.577 429.216 553.421ZM431.268 552.207C431.025 552.352 430.783 552.499 430.54 552.644C430.783 552.499 431.025 552.352 431.268 552.207ZM433.316 550.961C433.078 551.108 432.84 551.256 432.602 551.401C432.84 551.256 433.078 551.108 433.316 550.961ZM435.216 549.777C435.049 549.883 434.883 549.988 434.716 550.093C434.883 549.988 435.049 549.883 435.216 549.777ZM437.334 548.422C437.142 548.546 436.951 548.671 436.759 548.795C436.951 548.671 437.142 548.546 437.334 548.422ZM439.409 547.057C439.186 547.205 438.965 547.354 438.741 547.502C438.965 547.354 439.186 547.205 439.409 547.057ZM441.252 545.815C441.099 545.92 440.946 546.025 440.793 546.129C440.946 546.025 441.099 545.92 441.252 545.815ZM443.105 544.536C443.012 544.601 442.92 544.667 442.826 544.732C442.92 544.667 443.012 544.601 443.105 544.536ZM445.196 543.056C445.054 543.158 444.912 543.261 444.769 543.363C444.912 543.261 445.054 543.158 445.196 543.056ZM456.046 541.287L454.356 542.945C454.922 542.393 455.485 541.84 456.046 541.286L457.722 539.621C457.165 540.177 456.607 540.733 456.046 541.287ZM447.191 541.606C447.038 541.719 446.885 541.834 446.731 541.946C446.885 541.834 447.038 541.719 447.191 541.606ZM449.229 540.087C449.035 540.233 448.843 540.38 448.649 540.525C448.843 540.38 449.035 540.233 449.229 540.087ZM451.174 538.6C450.966 538.761 450.758 538.923 450.55 539.083C450.758 538.923 450.966 538.761 451.174 538.6ZM455.195 535.403C454.9 535.644 454.606 535.886 454.31 536.125C454.606 535.886 454.9 535.644 455.195 535.403ZM456.661 534.197C456.521 534.314 456.381 534.432 456.24 534.549C456.381 534.432 456.521 534.314 456.661 534.197ZM458.449 532.694C458.326 532.799 458.204 532.905 458.081 533.01C458.204 532.905 458.326 532.799 458.449 532.694ZM473.235 518.792C468.541 523.666 463.607 528.307 458.449 532.694C463.607 528.307 468.541 523.666 473.235 518.792ZM327 227.671C409.843 227.671 477 294.828 477 377.671C477 460.514 409.843 527.671 327 527.671C244.157 527.671 177 460.514 177 377.671C177 294.828 244.157 227.671 327 227.671ZM473.883 518.121C473.668 518.346 473.451 518.568 473.235 518.792C473.451 518.568 473.668 518.346 473.883 518.121ZM475.505 516.401C475.448 516.463 475.39 516.524 475.333 516.585C475.39 516.524 475.448 516.463 475.505 516.401ZM477.14 514.627C476.986 514.795 476.831 514.962 476.677 515.13C476.831 514.962 476.986 514.795 477.14 514.627ZM478.788 512.795C478.56 513.051 478.33 513.305 478.101 513.561C478.33 513.305 478.56 513.051 478.788 512.795ZM480.359 511.005C480.142 511.255 479.923 511.504 479.704 511.753C479.923 511.504 480.142 511.255 480.359 511.005ZM481.939 509.162C481.739 509.399 481.536 509.634 481.334 509.87C481.536 509.634 481.739 509.399 481.939 509.162ZM483.497 507.302C483.275 507.571 483.05 507.838 482.826 508.105C483.05 507.838 483.275 507.571 483.497 507.302ZM485.055 505.396C484.801 505.71 484.545 506.022 484.29 506.334C484.545 506.021 484.801 505.71 485.055 505.396ZM486.506 503.576C486.384 503.731 486.26 503.885 486.138 504.04C486.26 503.885 486.384 503.731 486.506 503.576ZM488.015 501.639C487.823 501.888 487.629 502.136 487.436 502.385C487.629 502.136 487.823 501.888 488.015 501.639ZM489.521 499.655C489.279 499.977 489.036 500.296 488.793 500.616C489.036 500.296 489.279 499.977 489.521 499.655ZM490.951 497.724C490.693 498.076 490.433 498.427 490.173 498.777C490.433 498.427 490.693 498.076 490.951 497.724ZM492.354 495.783C492.131 496.095 491.906 496.404 491.683 496.714C491.906 496.404 492.131 496.095 492.354 495.783ZM493.732 493.826C493.529 494.118 493.323 494.409 493.118 494.7C493.323 494.409 493.529 494.118 493.732 493.826ZM495.116 491.812C494.928 492.09 494.737 492.365 494.548 492.642C494.737 492.365 494.928 492.09 495.116 491.812ZM496.456 489.812C496.272 490.09 496.086 490.366 495.9 490.644C496.086 490.366 496.272 490.09 496.456 489.812ZM497.776 487.787C497.587 488.081 497.396 488.375 497.205 488.668C497.396 488.375 497.587 488.081 497.776 487.787ZM499.088 485.726C498.905 486.017 498.72 486.306 498.536 486.597C498.72 486.306 498.905 486.017 499.088 485.726ZM500.381 483.637C500.182 483.962 499.981 484.286 499.78 484.61C499.981 484.286 500.182 483.962 500.381 483.637ZM501.639 481.547C501.439 481.883 501.237 482.219 501.035 482.554C501.237 482.219 501.439 481.883 501.639 481.547ZM502.862 479.459C502.671 479.79 502.478 480.121 502.284 480.451C502.478 480.121 502.671 479.79 502.862 479.459ZM504.076 477.329C503.88 477.678 503.682 478.027 503.483 478.375C503.682 478.027 503.88 477.678 504.076 477.329ZM505.24 475.23C505.061 475.559 504.88 475.886 504.698 476.214C504.88 475.886 505.061 475.559 505.24 475.23ZM506.409 473.06C506.229 473.398 506.048 473.736 505.866 474.074C506.048 473.736 506.229 473.398 506.409 473.06ZM507.565 470.85C507.368 471.233 507.169 471.615 506.97 471.996C507.169 471.615 507.368 471.233 507.565 470.85ZM508.645 468.726C508.462 469.091 508.278 469.455 508.093 469.818C508.278 469.455 508.462 469.091 508.645 468.726ZM509.702 466.58C509.546 466.903 509.388 467.224 509.229 467.546C509.388 467.224 509.546 466.903 509.702 466.58ZM511.562 462.649C510.956 463.968 510.335 465.277 509.702 466.58C510.335 465.277 510.956 463.968 511.562 462.649ZM512.647 460.244C512.602 460.346 512.557 460.448 512.512 460.55C512.557 460.448 512.602 460.346 512.647 460.244ZM513.561 458.155C514.486 456.003 515.376 453.831 516.229 451.642C515.376 453.831 514.486 456.003 513.561 458.155ZM516.37 451.281C516.324 451.402 516.275 451.521 516.229 451.642C516.275 451.521 516.324 451.402 516.37 451.281ZM517.215 449.058C518.043 446.841 518.834 444.606 519.586 442.354C518.834 444.606 518.043 446.841 517.215 449.058ZM519.667 442.113C519.64 442.193 519.613 442.273 519.586 442.354C519.613 442.273 519.64 442.193 519.667 442.113ZM520.461 439.673C520.42 439.801 520.379 439.93 520.338 440.059C520.379 439.93 520.42 439.801 520.461 439.673ZM520.829 438.503C520.78 438.662 520.731 438.821 520.681 438.979C520.731 438.821 520.78 438.662 520.829 438.503ZM521.206 437.28C521.12 437.562 521.034 437.844 520.946 438.126C521.034 437.844 521.12 437.562 521.206 437.28ZM521.896 434.969C521.845 435.141 521.795 435.314 521.744 435.486C521.795 435.314 521.845 435.141 521.896 434.969ZM522.259 433.711C522.18 433.987 522.101 434.262 522.021 434.537C522.101 434.262 522.18 433.987 522.259 433.711ZM522.895 431.429C522.853 431.582 522.811 431.735 522.769 431.888C522.811 431.735 522.853 431.582 522.895 431.429ZM523.242 430.131C523.181 430.363 523.119 430.596 523.057 430.828C523.119 430.596 523.181 430.363 523.242 430.131ZM523.917 427.518C523.846 427.799 523.775 428.081 523.703 428.362C523.775 428.081 523.846 427.799 523.917 427.518ZM524.185 426.435C524.114 426.725 524.042 427.015 523.97 427.305C524.042 427.015 524.114 426.725 524.185 426.435ZM524.453 425.325C524.395 425.569 524.335 425.812 524.276 426.056C524.335 425.812 524.395 425.569 524.453 425.325ZM524.758 424.033C524.707 424.254 524.654 424.475 524.603 424.695C524.654 424.475 524.707 424.254 524.758 424.033ZM525.027 422.852C524.97 423.107 524.912 423.362 524.854 423.616C524.912 423.362 524.97 423.107 525.027 422.852ZM525.571 420.366C525.513 420.641 525.454 420.917 525.395 421.191C525.454 420.917 525.513 420.641 525.571 420.366ZM525.79 419.322C525.755 419.493 525.718 419.664 525.683 419.835C525.718 419.664 525.755 419.493 525.79 419.322ZM526.038 418.102C526.01 418.24 525.983 418.379 525.955 418.518C525.983 418.379 526.01 418.24 526.038 418.102ZM526.296 416.799C526.261 416.98 526.225 417.162 526.189 417.343C526.225 417.162 526.261 416.98 526.296 416.799ZM526.542 415.502C526.506 415.692 526.472 415.882 526.436 416.072C526.472 415.882 526.506 415.692 526.542 415.502ZM526.78 414.2C526.736 414.444 526.692 414.689 526.647 414.933C526.692 414.689 526.736 414.444 526.78 414.2ZM527 412.963C526.954 413.23 526.906 413.496 526.858 413.763C526.906 413.496 526.954 413.23 527 412.963ZM527.189 411.848C527.158 412.033 527.127 412.219 527.096 412.404C527.127 412.219 527.158 412.033 527.189 411.848ZM527.406 410.529C527.371 410.751 527.335 410.972 527.299 411.193C527.335 410.972 527.371 410.751 527.406 410.529ZM527.603 409.288C527.568 409.514 527.533 409.74 527.497 409.966C527.533 409.74 527.568 409.514 527.603 409.288ZM527.812 407.901C527.774 408.162 527.735 408.422 527.695 408.683C527.735 408.422 527.774 408.162 527.812 407.901ZM528.011 406.523C527.964 406.855 527.916 407.187 527.868 407.519C527.916 407.187 527.964 406.855 528.011 406.523ZM528.321 404.224C528.292 404.455 528.261 404.685 528.23 404.916C528.261 404.685 528.292 404.455 528.321 404.224ZM528.468 403.054C528.447 403.223 528.427 403.392 528.405 403.562C528.427 403.392 528.447 403.223 528.468 403.054ZM528.638 401.633C528.606 401.908 528.574 402.182 528.541 402.457C528.574 402.182 528.606 401.908 528.638 401.633ZM528.896 399.293C528.876 399.479 528.857 399.664 528.837 399.85C528.857 399.664 528.876 399.479 528.896 399.293ZM529.018 398.088C529.001 398.252 528.985 398.416 528.969 398.58C528.985 398.416 529.001 398.252 529.018 398.088ZM529.271 395.303C529.25 395.561 529.228 395.82 529.205 396.078C529.228 395.82 529.25 395.561 529.271 395.303ZM529.553 391.558C529.537 391.789 529.523 392.02 529.507 392.251C529.523 392.02 529.537 391.789 529.553 391.558ZM529.703 389.037C529.876 385.809 529.976 382.561 529.996 379.294V379.312C529.975 382.573 529.876 385.815 529.703 389.037ZM529.989 375.994C529.99 376.074 529.991 376.154 529.991 376.233C529.991 376.154 529.99 376.074 529.989 375.994ZM529.926 372.493C529.957 373.658 529.978 374.825 529.989 375.994C529.978 374.825 529.957 373.658 529.926 372.493ZM576.983 375.268C576.985 375.408 576.987 375.548 576.988 375.688C576.987 375.548 576.985 375.408 576.983 375.268ZM576.941 372.608C576.945 372.756 576.948 372.903 576.951 373.051C576.948 372.903 576.945 372.756 576.941 372.608ZM529.918 372.213C529.921 372.306 529.923 372.4 529.926 372.493C529.923 372.4 529.921 372.306 529.918 372.213ZM576.878 370.153C576.885 370.391 576.892 370.629 576.898 370.867C576.892 370.629 576.885 370.391 576.878 370.153ZM576.784 367.554C576.791 367.715 576.798 367.877 576.805 368.038C576.798 367.877 576.791 367.715 576.784 367.554ZM529.685 366.613C529.693 366.758 529.7 366.902 529.708 367.047C529.7 366.902 529.693 366.758 529.685 366.613ZM529.603 365.213C529.594 365.071 529.584 364.928 529.575 364.786C529.584 364.928 529.594 365.071 529.603 365.213ZM529.445 362.9C529.457 363.056 529.468 363.212 529.479 363.368C529.468 363.212 529.457 363.056 529.445 362.9ZM576.535 362.651C576.545 362.811 576.554 362.97 576.563 363.129C576.554 362.97 576.545 362.811 576.535 362.651ZM529.315 361.22C529.323 361.318 529.331 361.416 529.339 361.514C529.331 361.416 529.323 361.318 529.315 361.22ZM528.626 354.266C528.895 356.572 529.125 358.89 529.315 361.22C529.125 358.89 528.895 356.572 528.626 354.266ZM576.183 357.647C576.196 357.815 576.209 357.983 576.223 358.15C576.209 357.983 576.196 357.815 576.183 357.647ZM575.938 354.827C575.961 355.068 575.983 355.309 576.005 355.551C575.983 355.309 575.961 355.068 575.938 354.827ZM528.57 353.796C528.589 353.952 528.608 354.109 528.626 354.266C528.608 354.109 528.589 353.952 528.57 353.796ZM521.73 320.467C524.906 331.231 527.213 342.368 528.57 353.796C527.212 342.368 524.906 331.232 521.73 320.468V320.467ZM575.739 352.755C575.759 352.949 575.778 353.143 575.797 353.337C575.778 353.143 575.759 352.949 575.739 352.755ZM575.47 350.201C575.489 350.374 575.509 350.547 575.527 350.721C575.509 350.547 575.489 350.374 575.47 350.201ZM574.895 345.421C574.91 345.538 574.925 345.655 574.94 345.772C574.925 345.655 574.91 345.538 574.895 345.421ZM574.205 340.507C574.227 340.656 574.25 340.805 574.272 340.954C574.25 340.805 574.227 340.656 574.205 340.507ZM573.525 336.236C573.764 337.656 573.99 339.079 574.205 340.507C573.99 339.079 573.764 337.656 573.525 336.236ZM562.063 334.961C561.856 336.043 561.646 337.123 561.433 338.199C561.646 337.123 561.856 336.043 562.063 334.961ZM573.424 335.636C573.458 335.836 573.492 336.036 573.525 336.236C573.492 336.036 573.458 335.836 573.424 335.636ZM572.644 331.299C572.916 332.74 573.176 334.186 573.424 335.636C573.176 334.186 572.916 332.74 572.644 331.299ZM562.562 332.329C562.49 332.715 562.418 333.1 562.345 333.484C562.417 333.1 562.49 332.715 562.562 332.329ZM572.557 330.838C572.586 330.991 572.615 331.145 572.644 331.299C572.615 331.145 572.586 330.991 572.557 330.838ZM563.025 329.829C562.949 330.247 562.871 330.663 562.794 331.08C562.886 330.579 562.98 330.077 563.071 329.574L563.025 329.829ZM572.096 328.484C572.116 328.584 572.135 328.684 572.155 328.783C572.135 328.684 572.116 328.584 572.096 328.484ZM571.07 323.632C571.103 323.78 571.135 323.928 571.168 324.076C571.135 323.928 571.103 323.78 571.07 323.632ZM569.486 316.928C570.044 319.151 570.572 321.386 571.07 323.632C570.572 321.386 570.044 319.151 569.486 316.928ZM569.363 316.443C569.404 316.605 569.446 316.766 569.486 316.928C569.446 316.766 569.404 316.605 569.363 316.443ZM568.801 314.262C568.855 314.467 568.908 314.672 568.961 314.877C568.908 314.672 568.855 314.467 568.801 314.262ZM568.173 311.922C568.205 312.041 568.238 312.159 568.271 312.278C568.238 312.159 568.205 312.041 568.173 311.922ZM567.564 309.736C566.497 305.968 565.344 302.235 564.106 298.541C565.344 302.235 566.497 305.968 567.564 309.736ZM563.983 298.175C564.024 298.297 564.066 298.419 564.106 298.541C564.066 298.419 564.024 298.297 563.983 298.175ZM561.692 291.671C562.485 293.825 563.249 295.993 563.983 298.175C563.249 295.993 562.485 293.825 561.692 291.671ZM561.582 291.37C561.619 291.47 561.656 291.571 561.692 291.671C561.656 291.571 561.619 291.47 561.582 291.37ZM559.999 287.201C560.539 288.585 561.066 289.975 561.582 291.37C561.066 289.975 560.539 288.585 559.999 287.201ZM559.905 286.962C559.936 287.042 559.968 287.121 559.999 287.201C559.968 287.121 559.936 287.042 559.905 286.962ZM553.421 271.875C555.742 276.818 557.905 281.849 559.905 286.962C557.905 281.849 555.742 276.818 553.421 271.875ZM553.294 271.604C553.336 271.695 553.379 271.785 553.421 271.875C553.379 271.785 553.336 271.695 553.294 271.604ZM549.231 263.377C550.634 266.091 551.989 268.834 553.294 271.604C551.989 268.834 550.634 266.091 549.231 263.377ZM549.136 263.19C549.168 263.252 549.199 263.315 549.231 263.377C549.199 263.315 549.168 263.252 549.136 263.19ZM545.858 257.073C546.978 259.095 548.071 261.134 549.136 263.19C548.071 261.134 546.978 259.095 545.858 257.073ZM545.767 256.908C545.797 256.963 545.828 257.018 545.858 257.073C545.828 257.018 545.797 256.963 545.767 256.908ZM543.562 253.015C544.308 254.305 545.043 255.603 545.767 256.908C545.043 255.603 544.308 254.305 543.562 253.015ZM543.403 252.742C543.456 252.833 543.509 252.924 543.562 253.015C543.509 252.924 543.456 252.833 543.403 252.742ZM537.387 242.9C539.465 246.131 541.472 249.412 543.403 252.742C541.472 249.412 539.465 246.131 537.387 242.9ZM537.271 242.72C537.309 242.78 537.348 242.84 537.387 242.9C537.348 242.84 537.309 242.78 537.271 242.72ZM454.31 536.125C453.801 536.535 453.29 536.941 452.777 537.346C453.29 536.941 453.801 536.535 454.31 536.125ZM512.512 460.55C512.203 461.242 511.891 461.932 511.575 462.62C511.891 461.932 512.203 461.242 512.512 460.55ZM521.535 436.189C521.454 436.46 521.373 436.731 521.291 437.002C521.373 436.731 521.454 436.46 521.535 436.189ZM522.584 432.559C522.503 432.849 522.421 433.139 522.339 433.429C522.421 433.139 522.503 432.849 522.584 432.559ZM523.543 428.986C523.474 429.255 523.402 429.522 523.332 429.79C523.402 429.522 523.474 429.255 523.543 428.986ZM525.308 421.588C525.243 421.885 525.177 422.183 525.11 422.479C525.177 422.183 525.243 421.885 525.308 421.588ZM528.158 405.45C528.117 405.753 528.077 406.057 528.034 406.359C528.077 406.057 528.117 405.753 528.158 405.45ZM528.777 400.403C528.745 400.698 528.711 400.992 528.678 401.286C528.711 400.992 528.745 400.698 528.777 400.403ZM529.205 396.078C529.177 396.394 529.148 396.709 529.119 397.024C529.148 396.709 529.177 396.394 529.205 396.078ZM529.373 394.056C529.352 394.327 529.33 394.599 529.308 394.87C529.33 394.599 529.352 394.327 529.373 394.056ZM529.507 392.251C529.482 392.602 529.457 392.953 529.431 393.304C529.457 392.953 529.482 392.602 529.507 392.251ZM529.708 367.047C529.736 367.569 529.762 368.091 529.786 368.614C529.762 368.091 529.736 367.569 529.708 367.047ZM529.479 363.368C529.513 363.84 529.545 364.313 529.575 364.786C529.545 364.313 529.513 363.84 529.479 363.368Z" fill="white"/>
<path d="M571.2 125.908C554.448 -163.157 597.585 141.142 597.585 141.142C661.5 570 661.5 570 287.921 677.496C287.921 677.496 12.4234 766.63 261.535 662.262C510.647 557.894 587.951 414.973 571.2 125.908Z" fill="white"/>
</g>
<defs>
<clipPath id="clip0_34_90">
<rect width="722" height="722" fill="white"/>
</clipPath>
</defs>
</svg>
