<svg width="35" height="35" viewBox="0 0 35 35" fill="none" xmlns="http://www.w3.org/2000/svg">
<g clip-path="url(#clip0_35_266)">
<path d="M24.0156 27.2632C21.8616 29.2281 18.9969 30.4272 15.8516 30.4272C9.15837 30.4272 3.73244 25.0013 3.73242 18.3081C3.73242 11.6149 9.15836 6.18896 15.8516 6.18896C19.9255 6.18897 23.5274 8.20104 25.7246 11.2837C25.6647 12.8038 25.5262 14.198 25.2998 15.4829C25.5645 16.373 25.7099 17.3154 25.71 18.2915C25.7099 20.6709 24.8628 22.8505 23.457 24.5513C24.8532 22.8525 25.6924 20.6786 25.6924 18.3081C25.6923 12.8733 21.2864 8.46729 15.8516 8.46729C10.4168 8.46741 6.01078 12.8733 6.01074 18.3081C6.01074 23.7429 10.4168 28.1488 15.8516 28.1489C15.9417 28.1489 16.0315 28.1445 16.1211 28.1421C15.0351 28.7631 13.8342 29.3579 12.5078 29.9351C13.5753 30.2426 14.7027 30.4106 15.8691 30.4106C19.0058 30.4105 21.8636 29.2185 24.0156 27.2632ZM22.5625 25.5015C20.8654 27.0854 18.6095 28.0752 16.1211 28.1421C16.1317 28.136 16.1427 28.1306 16.1533 28.1245C18.6267 28.0542 20.8708 27.0714 22.5625 25.5015ZM25.7266 11.2476C27.1479 13.233 27.9881 15.6636 27.9883 18.2915C27.9883 21.6467 26.624 24.683 24.4209 26.8774C26.614 24.6843 27.9707 21.6547 27.9707 18.3081C27.9707 15.6889 27.1372 13.2656 25.7246 11.2837C25.7251 11.2718 25.7261 11.2595 25.7266 11.2476ZM15.8516 11.0366C19.8675 11.0366 23.123 14.2922 23.123 18.3081C23.123 22.324 19.8675 25.5796 15.8516 25.5796C11.8357 25.5795 8.58009 22.324 8.58008 18.3081C8.58008 14.2922 11.8357 11.0367 15.8516 11.0366ZM22.6543 25.4136C22.6236 25.4428 22.5936 25.4726 22.5625 25.5015C22.5935 25.4725 22.6237 25.4429 22.6543 25.4136ZM23.0342 25.0298C22.9802 25.0871 22.9264 25.1446 22.8711 25.2007C22.9263 25.1445 22.9803 25.0873 23.0342 25.0298ZM23.4434 24.5688C23.3534 24.6772 23.2615 24.7838 23.167 24.8882C23.2612 24.7836 23.3537 24.6775 23.4434 24.5688Z" fill="white"/>
<path d="M27.6894 6.10356C26.8774 -7.90928 28.9685 6.84205 28.9685 6.84205C32.0669 27.6316 32.0669 27.6316 13.9571 32.8426C13.9571 32.8426 0.601947 37.1635 12.678 32.1041C24.7541 27.0447 28.5015 20.1164 27.6894 6.10356Z" fill="white"/>
</g>
<defs>
<clipPath id="clip0_35_266">
<rect width="35" height="35" fill="white"/>
</clipPath>
</defs>
</svg>
