<svg width="490" height="35" viewBox="0 0 490 35" fill="none" xmlns="http://www.w3.org/2000/svg">
<g transform="translate(0, 0)" clip-path="url(#clip_f0)">
<path d="M24.0156 27.2632C21.8616 29.2281 18.9969 30.4272 15.8516 30.4272C9.15837 30.4272 3.73244 25.0013 3.73242 18.3081C3.73242 11.6149 9.15836 6.18896 15.8516 6.18896C19.9255 6.18897 23.5274 8.20104 25.7246 11.2837C25.6647 12.8038 25.5262 14.198 25.2998 15.4829C25.5645 16.373 25.7099 17.3154 25.71 18.2915C25.7099 20.6709 24.8628 22.8505 23.457 24.5513C24.8532 22.8525 25.6924 20.6786 25.6924 18.3081C25.6923 12.8733 21.2864 8.46729 15.8516 8.46729C10.4168 8.46741 6.01078 12.8733 6.01074 18.3081C6.01074 23.7429 10.4168 28.1488 15.8516 28.1489C15.9417 28.1489 16.0315 28.1445 16.1211 28.1421C15.0351 28.7631 13.8342 29.3579 12.5078 29.9351C13.5753 30.2426 14.7027 30.4106 15.8691 30.4106C19.0058 30.4105 21.8636 29.2185 24.0156 27.2632ZM22.5625 25.5015C20.8654 27.0854 18.6095 28.0752 16.1211 28.1421C16.1317 28.136 16.1427 28.1306 16.1533 28.1245C18.6267 28.0542 20.8708 27.0714 22.5625 25.5015ZM25.7266 11.2476C27.1479 13.233 27.9881 15.6636 27.9883 18.2915C27.9883 21.6467 26.624 24.683 24.4209 26.8774C26.614 24.6843 27.9707 21.6547 27.9707 18.3081C27.9707 15.6889 27.1372 13.2656 25.7246 11.2837C25.7251 11.2718 25.7261 11.2595 25.7266 11.2476ZM15.8516 11.0366C19.8675 11.0366 23.123 14.2922 23.123 18.3081C23.123 22.324 19.8675 25.5796 15.8516 25.5796C11.8357 25.5795 8.58009 22.324 8.58008 18.3081C8.58008 14.2922 11.8357 11.0367 15.8516 11.0366ZM22.6543 25.4136C22.6236 25.4428 22.5936 25.4726 22.5625 25.5015C22.5935 25.4725 22.6237 25.4429 22.6543 25.4136ZM23.0342 25.0298C22.9802 25.0871 22.9264 25.1446 22.8711 25.2007C22.9263 25.1445 22.9803 25.0873 23.0342 25.0298ZM23.4434 24.5688C23.3534 24.6772 23.2615 24.7838 23.167 24.8882C23.2612 24.7836 23.3537 24.6775 23.4434 24.5688Z" fill="white"/>
<path d="M27.6894 6.10356C26.8774 -7.90928 28.9685 6.84205 28.9685 6.84205C32.0669 27.6316 32.0669 27.6316 13.9571 32.8426C13.9571 32.8426 0.601947 37.1635 12.678 32.1041C24.7541 27.0447 28.5015 20.1164 27.6894 6.10356Z" fill="white"/>
</g>
<g transform="translate(35, 0)" clip-path="url(#clip_f1)">
<path d="M23.0156 27.2632C20.8616 29.2281 17.9969 30.4272 14.8516 30.4272C8.15837 30.4272 2.73244 25.0013 2.73242 18.3081C2.73242 11.6149 8.15836 6.18896 14.8516 6.18896C18.9255 6.18897 22.5274 8.20104 24.7246 11.2837C24.6647 12.8038 24.5262 14.198 24.2998 15.4829C24.5645 16.373 24.7099 17.3154 24.71 18.2915C24.7099 20.6709 23.8628 22.8505 22.457 24.5513C23.8532 22.8525 24.6924 20.6786 24.6924 18.3081C24.6923 12.8733 20.2864 8.46729 14.8516 8.46729C9.41681 8.46741 5.01078 12.8733 5.01074 18.3081C5.01074 23.7429 9.41679 28.1488 14.8516 28.1489C14.9417 28.1489 15.0315 28.1445 15.1211 28.1421C14.0351 28.7631 12.8342 29.3579 11.5078 29.9351C12.5753 30.2426 13.7027 30.4106 14.8691 30.4106C18.0058 30.4105 20.8636 29.2185 23.0156 27.2632ZM21.5625 25.5015C19.8654 27.0854 17.6095 28.0752 15.1211 28.1421C15.1317 28.136 15.1427 28.1306 15.1533 28.1245C17.6267 28.0542 19.8708 27.0714 21.5625 25.5015ZM24.7266 11.2476C26.1479 13.233 26.9881 15.6636 26.9883 18.2915C26.9883 21.6467 25.624 24.683 23.4209 26.8774C25.614 24.6843 26.9707 21.6547 26.9707 18.3081C26.9707 15.6889 26.1372 13.2656 24.7246 11.2837C24.7251 11.2718 24.7261 11.2595 24.7266 11.2476ZM14.8516 11.0366C18.8675 11.0366 22.123 14.2922 22.123 18.3081C22.123 22.324 18.8675 25.5796 14.8516 25.5796C10.8357 25.5795 7.58009 22.324 7.58008 18.3081C7.58008 14.2922 10.8357 11.0367 14.8516 11.0366ZM21.6543 25.4136C21.6236 25.4428 21.5936 25.4726 21.5625 25.5015C21.5935 25.4725 21.6237 25.4429 21.6543 25.4136ZM22.0342 25.0298C21.9802 25.0871 21.9264 25.1446 21.8711 25.2007C21.9263 25.1445 21.9803 25.0873 22.0342 25.0298ZM22.4434 24.5688C22.3534 24.6772 22.2615 24.7838 22.167 24.8882C22.2612 24.7836 22.3537 24.6775 22.4434 24.5688Z" fill="white"/>
<path d="M27.6894 6.10356C26.8774 -7.90928 28.9685 6.84205 28.9685 6.84205C32.0669 27.6316 32.0669 27.6316 13.9571 32.8426C13.9571 32.8426 0.601947 37.1635 12.678 32.1041C24.7541 27.0447 28.5015 20.1164 27.6894 6.10356Z" fill="white"/>
</g>
<g transform="translate(70, 0)" clip-path="url(#clip_f2)">
<path d="M22.0156 27.2632C19.8616 29.2281 16.9969 30.4272 13.8516 30.4272C7.15837 30.4272 1.73244 25.0013 1.73242 18.3081C1.73242 11.6149 7.15836 6.18896 13.8516 6.18896C17.9255 6.18897 21.5274 8.20104 23.7246 11.2837C23.6647 12.8038 23.5262 14.198 23.2998 15.4829C23.5645 16.373 23.7099 17.3154 23.71 18.2915C23.7099 20.6709 22.8628 22.8505 21.457 24.5513C22.8532 22.8525 23.6924 20.6786 23.6924 18.3081C23.6923 12.8733 19.2864 8.46729 13.8516 8.46729C8.41681 8.46741 4.01078 12.8733 4.01074 18.3081C4.01074 23.7429 8.41679 28.1488 13.8516 28.1489C13.9417 28.1489 14.0315 28.1445 14.1211 28.1421C13.0351 28.7631 11.8342 29.3579 10.5078 29.9351C11.5753 30.2426 12.7027 30.4106 13.8691 30.4106C17.0058 30.4105 19.8636 29.2185 22.0156 27.2632ZM20.5625 25.5015C18.8654 27.0854 16.6095 28.0752 14.1211 28.1421C14.1317 28.136 14.1427 28.1306 14.1533 28.1245C16.6267 28.0542 18.8708 27.0714 20.5625 25.5015ZM23.7266 11.2476C25.1479 13.233 25.9881 15.6636 25.9883 18.2915C25.9883 21.6467 24.624 24.683 22.4209 26.8774C24.614 24.6843 25.9707 21.6547 25.9707 18.3081C25.9707 15.6889 25.1372 13.2656 23.7246 11.2837C23.7251 11.2718 23.7261 11.2595 23.7266 11.2476ZM13.8516 11.0366C17.8675 11.0366 21.123 14.2922 21.123 18.3081C21.123 22.324 17.8675 25.5796 13.8516 25.5796C9.83571 25.5795 6.58009 22.324 6.58008 18.3081C6.58008 14.2922 9.83571 11.0367 13.8516 11.0366ZM20.6543 25.4136C20.6236 25.4428 20.5936 25.4726 20.5625 25.5015C20.5935 25.4725 20.6237 25.4429 20.6543 25.4136ZM21.0342 25.0298C20.9802 25.0871 20.9264 25.1446 20.8711 25.2007C20.9263 25.1445 20.9803 25.0873 21.0342 25.0298ZM21.4434 24.5688C21.3534 24.6772 21.2615 24.7838 21.167 24.8882C21.2612 24.7836 21.3537 24.6775 21.4434 24.5688Z" fill="white"/>
<path d="M27.6894 6.10356C26.8774 -7.90928 28.9685 6.84205 28.9685 6.84205C32.0669 27.6316 32.0669 27.6316 13.9571 32.8426C13.9571 32.8426 0.601947 37.1635 12.678 32.1041C24.7541 27.0447 28.5015 20.1164 27.6894 6.10356Z" fill="white"/>
</g>
<g transform="translate(105, 0)" clip-path="url(#clip_f3)">
<path d="M21.0156 27.2632C18.8616 29.2281 15.9969 30.4272 12.8516 30.4272C6.15837 30.4272 0.732437 25.0013 0.732422 18.3081C0.732422 11.6149 6.15836 6.18896 12.8516 6.18896C16.9255 6.18897 20.5274 8.20104 22.7246 11.2837C22.6647 12.8038 22.5262 14.198 22.2998 15.4829C22.5645 16.373 22.7099 17.3154 22.71 18.2915C22.7099 20.6709 21.8628 22.8505 20.457 24.5513C21.8532 22.8525 22.6924 20.6786 22.6924 18.3081C22.6923 12.8733 18.2864 8.46729 12.8516 8.46729C7.41681 8.46741 3.01078 12.8733 3.01074 18.3081C3.01074 23.7429 7.41679 28.1488 12.8516 28.1489C12.9417 28.1489 13.0315 28.1445 13.1211 28.1421C12.0351 28.7631 10.8342 29.3579 9.50781 29.9351C10.5753 30.2426 11.7027 30.4106 12.8691 30.4106C16.0058 30.4105 18.8636 29.2185 21.0156 27.2632ZM19.5625 25.5015C17.8654 27.0854 15.6095 28.0752 13.1211 28.1421C13.1317 28.136 13.1427 28.1306 13.1533 28.1245C15.6267 28.0542 17.8708 27.0714 19.5625 25.5015ZM22.7266 11.2476C24.1479 13.233 24.9881 15.6636 24.9883 18.2915C24.9883 21.6467 23.624 24.683 21.4209 26.8774C23.614 24.6843 24.9707 21.6547 24.9707 18.3081C24.9707 15.6889 24.1372 13.2656 22.7246 11.2837C22.7251 11.2718 22.7261 11.2595 22.7266 11.2476ZM12.8516 11.0366C16.8675 11.0366 20.123 14.2922 20.123 18.3081C20.123 22.324 16.8675 25.5796 12.8516 25.5796C8.83571 25.5795 5.58009 22.324 5.58008 18.3081C5.58008 14.2922 8.83571 11.0367 12.8516 11.0366ZM19.6543 25.4136C19.6236 25.4428 19.5936 25.4726 19.5625 25.5015C19.5935 25.4725 19.6237 25.4429 19.6543 25.4136ZM20.0342 25.0298C19.9802 25.0871 19.9264 25.1446 19.8711 25.2007C19.9263 25.1445 19.9803 25.0873 20.0342 25.0298ZM20.4434 24.5688C20.3534 24.6772 20.2615 24.7838 20.167 24.8882C20.2612 24.7836 20.3537 24.6775 20.4434 24.5688Z" fill="white"/>
<path d="M27.6894 6.10356C26.8774 -7.90928 28.9685 6.84205 28.9685 6.84205C32.0669 27.6316 32.0669 27.6316 13.9571 32.8426C13.9571 32.8426 0.601947 37.1635 12.678 32.1041C24.7541 27.0447 28.5015 20.1164 27.6894 6.10356Z" fill="white"/>
</g>
<g transform="translate(140, 0)" clip-path="url(#clip_f4)">
<path d="M21.0156 26.2632C18.8616 28.2281 15.9969 29.4272 12.8516 29.4272C6.15837 29.4272 0.732437 24.0013 0.732422 17.3081C0.732422 10.6149 6.15836 5.18896 12.8516 5.18896C16.9255 5.18897 20.5274 7.20104 22.7246 10.2837C22.6647 11.8038 22.5262 13.198 22.2998 14.4829C22.5645 15.373 22.7099 16.3154 22.71 17.2915C22.7099 19.6709 21.8628 21.8505 20.457 23.5513C21.8532 21.8525 22.6924 19.6786 22.6924 17.3081C22.6923 11.8733 18.2864 7.46729 12.8516 7.46729C7.41681 7.46741 3.01078 11.8733 3.01074 17.3081C3.01074 22.7429 7.41679 27.1488 12.8516 27.1489C12.9417 27.1489 13.0315 27.1445 13.1211 27.1421C12.0351 27.7631 10.8342 28.3579 9.50781 28.9351C10.5753 29.2426 11.7027 29.4106 12.8691 29.4106C16.0058 29.4105 18.8636 28.2185 21.0156 26.2632ZM19.5625 24.5015C17.8654 26.0854 15.6095 27.0752 13.1211 27.1421C13.1317 27.136 13.1427 27.1306 13.1533 27.1245C15.6267 27.0542 17.8708 26.0714 19.5625 24.5015ZM22.7266 10.2476C24.1479 12.233 24.9881 14.6636 24.9883 17.2915C24.9883 20.6467 23.624 23.683 21.4209 25.8774C23.614 23.6843 24.9707 20.6547 24.9707 17.3081C24.9707 14.6889 24.1372 12.2656 22.7246 10.2837C22.7251 10.2718 22.7261 10.2595 22.7266 10.2476ZM12.8516 10.0366C16.8675 10.0366 20.123 13.2922 20.123 17.3081C20.123 21.324 16.8675 24.5796 12.8516 24.5796C8.83571 24.5795 5.58009 21.324 5.58008 17.3081C5.58008 13.2922 8.83571 10.0367 12.8516 10.0366ZM19.6543 24.4136C19.6236 24.4428 19.5936 24.4726 19.5625 24.5015C19.5935 24.4725 19.6237 24.4429 19.6543 24.4136ZM20.0342 24.0298C19.9802 24.0871 19.9264 24.1446 19.8711 24.2007C19.9263 24.1445 19.9803 24.0873 20.0342 24.0298ZM20.4434 23.5688C20.3534 23.6772 20.2615 23.7838 20.167 23.8882C20.2612 23.7836 20.3537 23.6775 20.4434 23.5688Z" fill="white"/>
<path d="M27.6894 6.10356C26.8774 -7.90928 28.9685 6.84205 28.9685 6.84205C32.0669 27.6316 32.0669 27.6316 13.9571 32.8426C13.9571 32.8426 0.601947 37.1635 12.678 32.1041C24.7541 27.0447 28.5015 20.1164 27.6894 6.10356Z" fill="white"/>
</g>
<g transform="translate(175, 0)" clip-path="url(#clip_f5)">
<path d="M21.0156 25.2632C18.8616 27.2281 15.9969 28.4272 12.8516 28.4272C6.15837 28.4272 0.732437 23.0013 0.732422 16.3081C0.732422 9.6149 6.15836 4.18896 12.8516 4.18896C16.9255 4.18897 20.5274 6.20104 22.7246 9.28369C22.6647 10.8038 22.5262 12.198 22.2998 13.4829C22.5645 14.373 22.7099 15.3154 22.71 16.2915C22.7099 18.6709 21.8628 20.8505 20.457 22.5513C21.8532 20.8525 22.6924 18.6786 22.6924 16.3081C22.6923 10.8733 18.2864 6.46729 12.8516 6.46729C7.41681 6.46741 3.01078 10.8733 3.01074 16.3081C3.01074 21.7429 7.41679 26.1488 12.8516 26.1489C12.9417 26.1489 13.0315 26.1445 13.1211 26.1421C12.0351 26.7631 10.8342 27.3579 9.50781 27.9351C10.5753 28.2426 11.7027 28.4106 12.8691 28.4106C16.0058 28.4105 18.8636 27.2185 21.0156 25.2632ZM19.5625 23.5015C17.8654 25.0854 15.6095 26.0752 13.1211 26.1421C13.1317 26.136 13.1427 26.1306 13.1533 26.1245C15.6267 26.0542 17.8708 25.0714 19.5625 23.5015ZM22.7266 9.24756C24.1479 11.233 24.9881 13.6636 24.9883 16.2915C24.9883 19.6467 23.624 22.683 21.4209 24.8774C23.614 22.6843 24.9707 19.6547 24.9707 16.3081C24.9707 13.6889 24.1372 11.2656 22.7246 9.28369C22.7251 9.27177 22.7261 9.2595 22.7266 9.24756ZM12.8516 9.03662C16.8675 9.03662 20.123 12.2922 20.123 16.3081C20.123 20.324 16.8675 23.5796 12.8516 23.5796C8.83571 23.5795 5.58009 20.324 5.58008 16.3081C5.58008 12.2922 8.83571 9.0367 12.8516 9.03662ZM19.6543 23.4136C19.6236 23.4428 19.5936 23.4726 19.5625 23.5015C19.5935 23.4725 19.6237 23.4429 19.6543 23.4136ZM20.0342 23.0298C19.9802 23.0871 19.9264 23.1446 19.8711 23.2007C19.9263 23.1445 19.9803 23.0873 20.0342 23.0298ZM20.4434 22.5688C20.3534 22.6772 20.2615 22.7838 20.167 22.8882C20.2612 22.7836 20.3537 22.6775 20.4434 22.5688Z" fill="white"/>
<path d="M27.6894 6.10356C26.8774 -7.90928 28.9685 6.84205 28.9685 6.84205C32.0669 27.6316 32.0669 27.6316 13.9571 32.8426C13.9571 32.8426 0.601947 37.1635 12.678 32.1041C24.7541 27.0447 28.5015 20.1164 27.6894 6.10356Z" fill="white"/>
</g>
<g transform="translate(210, 0)" clip-path="url(#clip_f6)">
<path d="M21.0156 24.2632C18.8616 26.2281 15.9969 27.4272 12.8516 27.4272C6.15837 27.4272 0.732437 22.0013 0.732422 15.3081C0.732422 8.6149 6.15836 3.18896 12.8516 3.18896C16.9255 3.18897 20.5274 5.20104 22.7246 8.28369C22.6647 9.8038 22.5262 11.198 22.2998 12.4829C22.5645 13.373 22.7099 14.3154 22.71 15.2915C22.7099 17.6709 21.8628 19.8505 20.457 21.5513C21.8532 19.8525 22.6924 17.6786 22.6924 15.3081C22.6923 9.87325 18.2864 5.46729 12.8516 5.46729C7.41681 5.46741 3.01078 9.87333 3.01074 15.3081C3.01074 20.7429 7.41679 25.1488 12.8516 25.1489C12.9417 25.1489 13.0315 25.1445 13.1211 25.1421C12.0351 25.7631 10.8342 26.3579 9.50781 26.9351C10.5753 27.2426 11.7027 27.4106 12.8691 27.4106C16.0058 27.4105 18.8636 26.2185 21.0156 24.2632ZM19.5625 22.5015C17.8654 24.0854 15.6095 25.0752 13.1211 25.1421C13.1317 25.136 13.1427 25.1306 13.1533 25.1245C15.6267 25.0542 17.8708 24.0714 19.5625 22.5015ZM22.7266 8.24756C24.1479 10.233 24.9881 12.6636 24.9883 15.2915C24.9883 18.6467 23.624 21.683 21.4209 23.8774C23.614 21.6843 24.9707 18.6547 24.9707 15.3081C24.9707 12.6889 24.1372 10.2656 22.7246 8.28369C22.7251 8.27177 22.7261 8.2595 22.7266 8.24756ZM12.8516 8.03662C16.8675 8.03662 20.123 11.2922 20.123 15.3081C20.123 19.324 16.8675 22.5796 12.8516 22.5796C8.83571 22.5795 5.58009 19.324 5.58008 15.3081C5.58008 11.2922 8.83571 8.0367 12.8516 8.03662ZM19.6543 22.4136C19.6236 22.4428 19.5936 22.4726 19.5625 22.5015C19.5935 22.4725 19.6237 22.4429 19.6543 22.4136ZM20.0342 22.0298C19.9802 22.0871 19.9264 22.1446 19.8711 22.2007C19.9263 22.1445 19.9803 22.0873 20.0342 22.0298ZM20.4434 21.5688C20.3534 21.6772 20.2615 21.7838 20.167 21.8882C20.2612 21.7836 20.3537 21.6775 20.4434 21.5688Z" fill="white"/>
<path d="M27.6894 6.10356C26.8774 -7.90928 28.9685 6.84205 28.9685 6.84205C32.0669 27.6316 32.0669 27.6316 13.9571 32.8426C13.9571 32.8426 0.601947 37.1635 12.678 32.1041C24.7541 27.0447 28.5015 20.1164 27.6894 6.10356Z" fill="white"/>
</g>
<g transform="translate(245, 0)" clip-path="url(#clip_f7)">
<path d="M21.0156 23.2632C18.8616 25.2281 15.9969 26.4272 12.8516 26.4272C6.15837 26.4272 0.732437 21.0013 0.732422 14.3081C0.732422 7.6149 6.15836 2.18896 12.8516 2.18896C16.9255 2.18897 20.5274 4.20104 22.7246 7.28369C22.6647 8.8038 22.5262 10.198 22.2998 11.4829C22.5645 12.373 22.7099 13.3154 22.71 14.2915C22.7099 16.6709 21.8628 18.8505 20.457 20.5513C21.8532 18.8525 22.6924 16.6786 22.6924 14.3081C22.6923 8.87325 18.2864 4.46729 12.8516 4.46729C7.41681 4.46741 3.01078 8.87333 3.01074 14.3081C3.01074 19.7429 7.41679 24.1488 12.8516 24.1489C12.9417 24.1489 13.0315 24.1445 13.1211 24.1421C12.0351 24.7631 10.8342 25.3579 9.50781 25.9351C10.5753 26.2426 11.7027 26.4106 12.8691 26.4106C16.0058 26.4105 18.8636 25.2185 21.0156 23.2632ZM19.5625 21.5015C17.8654 23.0854 15.6095 24.0752 13.1211 24.1421C13.1317 24.136 13.1427 24.1306 13.1533 24.1245C15.6267 24.0542 17.8708 23.0714 19.5625 21.5015ZM22.7266 7.24756C24.1479 9.23301 24.9881 11.6636 24.9883 14.2915C24.9883 17.6467 23.624 20.683 21.4209 22.8774C23.614 20.6843 24.9707 17.6547 24.9707 14.3081C24.9707 11.6889 24.1372 9.26557 22.7246 7.28369C22.7251 7.27177 22.7261 7.2595 22.7266 7.24756ZM12.8516 7.03662C16.8675 7.03662 20.123 10.2922 20.123 14.3081C20.123 18.324 16.8675 21.5796 12.8516 21.5796C8.83571 21.5795 5.58009 18.324 5.58008 14.3081C5.58008 10.2922 8.83571 7.0367 12.8516 7.03662ZM19.6543 21.4136C19.6236 21.4428 19.5936 21.4726 19.5625 21.5015C19.5935 21.4725 19.6237 21.4429 19.6543 21.4136ZM20.0342 21.0298C19.9802 21.0871 19.9264 21.1446 19.8711 21.2007C19.9263 21.1445 19.9803 21.0873 20.0342 21.0298ZM20.4434 20.5688C20.3534 20.6772 20.2615 20.7838 20.167 20.8882C20.2612 20.7836 20.3537 20.6775 20.4434 20.5688Z" fill="white"/>
<path d="M27.6894 6.10356C26.8774 -7.90928 28.9685 6.84205 28.9685 6.84205C32.0669 27.6316 32.0669 27.6316 13.9571 32.8426C13.9571 32.8426 0.601947 37.1635 12.678 32.1041C24.7541 27.0447 28.5015 20.1164 27.6894 6.10356Z" fill="white"/>
</g>
<g transform="translate(280, 0)" clip-path="url(#clip_f8)">
<path d="M22.0156 23.2632C19.8616 25.2281 16.9969 26.4272 13.8516 26.4272C7.15837 26.4272 1.73244 21.0013 1.73242 14.3081C1.73242 7.6149 7.15836 2.18896 13.8516 2.18896C17.9255 2.18897 21.5274 4.20104 23.7246 7.28369C23.6647 8.8038 23.5262 10.198 23.2998 11.4829C23.5645 12.373 23.7099 13.3154 23.71 14.2915C23.7099 16.6709 22.8628 18.8505 21.457 20.5513C22.8532 18.8525 23.6924 16.6786 23.6924 14.3081C23.6923 8.87325 19.2864 4.46729 13.8516 4.46729C8.41681 4.46741 4.01078 8.87333 4.01074 14.3081C4.01074 19.7429 8.41679 24.1488 13.8516 24.1489C13.9417 24.1489 14.0315 24.1445 14.1211 24.1421C13.0351 24.7631 11.8342 25.3579 10.5078 25.9351C11.5753 26.2426 12.7027 26.4106 13.8691 26.4106C17.0058 26.4105 19.8636 25.2185 22.0156 23.2632ZM20.5625 21.5015C18.8654 23.0854 16.6095 24.0752 14.1211 24.1421C14.1317 24.136 14.1427 24.1306 14.1533 24.1245C16.6267 24.0542 18.8708 23.0714 20.5625 21.5015ZM23.7266 7.24756C25.1479 9.23301 25.9881 11.6636 25.9883 14.2915C25.9883 17.6467 24.624 20.683 22.4209 22.8774C24.614 20.6843 25.9707 17.6547 25.9707 14.3081C25.9707 11.6889 25.1372 9.26557 23.7246 7.28369C23.7251 7.27177 23.7261 7.2595 23.7266 7.24756ZM13.8516 7.03662C17.8675 7.03662 21.123 10.2922 21.123 14.3081C21.123 18.324 17.8675 21.5796 13.8516 21.5796C9.83571 21.5795 6.58009 18.324 6.58008 14.3081C6.58008 10.2922 9.83571 7.0367 13.8516 7.03662ZM20.6543 21.4136C20.6236 21.4428 20.5936 21.4726 20.5625 21.5015C20.5935 21.4725 20.6237 21.4429 20.6543 21.4136ZM21.0342 21.0298C20.9802 21.0871 20.9264 21.1446 20.8711 21.2007C20.9263 21.1445 20.9803 21.0873 21.0342 21.0298ZM21.4434 20.5688C21.3534 20.6772 21.2615 20.7838 21.167 20.8882C21.2612 20.7836 21.3537 20.6775 21.4434 20.5688Z" fill="white"/>
<path d="M27.6894 6.10356C26.8774 -7.90928 28.9685 6.84205 28.9685 6.84205C32.0669 27.6316 32.0669 27.6316 13.9571 32.8426C13.9571 32.8426 0.601947 37.1635 12.678 32.1041C24.7541 27.0447 28.5015 20.1164 27.6894 6.10356Z" fill="white"/>
</g>
<g transform="translate(315, 0)" clip-path="url(#clip_f9)">
<path d="M23.0156 23.2632C20.8616 25.2281 17.9969 26.4272 14.8516 26.4272C8.15837 26.4272 2.73244 21.0013 2.73242 14.3081C2.73242 7.6149 8.15836 2.18896 14.8516 2.18896C18.9255 2.18897 22.5274 4.20104 24.7246 7.28369C24.6647 8.8038 24.5262 10.198 24.2998 11.4829C24.5645 12.373 24.7099 13.3154 24.71 14.2915C24.7099 16.6709 23.8628 18.8505 22.457 20.5513C23.8532 18.8525 24.6924 16.6786 24.6924 14.3081C24.6923 8.87325 20.2864 4.46729 14.8516 4.46729C9.41681 4.46741 5.01078 8.87333 5.01074 14.3081C5.01074 19.7429 9.41679 24.1488 14.8516 24.1489C14.9417 24.1489 15.0315 24.1445 15.1211 24.1421C14.0351 24.7631 12.8342 25.3579 11.5078 25.9351C12.5753 26.2426 13.7027 26.4106 14.8691 26.4106C18.0058 26.4105 20.8636 25.2185 23.0156 23.2632ZM21.5625 21.5015C19.8654 23.0854 17.6095 24.0752 15.1211 24.1421C15.1317 24.136 15.1427 24.1306 15.1533 24.1245C17.6267 24.0542 19.8708 23.0714 21.5625 21.5015ZM24.7266 7.24756C26.1479 9.23301 26.9881 11.6636 26.9883 14.2915C26.9883 17.6467 25.624 20.683 23.4209 22.8774C25.614 20.6843 26.9707 17.6547 26.9707 14.3081C26.9707 11.6889 26.1372 9.26557 24.7246 7.28369C24.7251 7.27177 24.7261 7.2595 24.7266 7.24756ZM14.8516 7.03662C18.8675 7.03662 22.123 10.2922 22.123 14.3081C22.123 18.324 18.8675 21.5796 14.8516 21.5796C10.8357 21.5795 7.58009 18.324 7.58008 14.3081C7.58008 10.2922 10.8357 7.0367 14.8516 7.03662ZM21.6543 21.4136C21.6236 21.4428 21.5936 21.4726 21.5625 21.5015C21.5935 21.4725 21.6237 21.4429 21.6543 21.4136ZM22.0342 21.0298C21.9802 21.0871 21.9264 21.1446 21.8711 21.2007C21.9263 21.1445 21.9803 21.0873 22.0342 21.0298ZM22.4434 20.5688C22.3534 20.6772 22.2615 20.7838 22.167 20.8882C22.2612 20.7836 22.3537 20.6775 22.4434 20.5688Z" fill="white"/>
<path d="M27.6894 6.10356C26.8774 -7.90928 28.9685 6.84205 28.9685 6.84205C32.0669 27.6316 32.0669 27.6316 13.9571 32.8426C13.9571 32.8426 0.601947 37.1635 12.678 32.1041C24.7541 27.0447 28.5015 20.1164 27.6894 6.10356Z" fill="white"/>
</g>
<g transform="translate(350, 0)" clip-path="url(#clip_f10)">
<path d="M24.0156 23.2632C21.8616 25.2281 18.9969 26.4272 15.8516 26.4272C9.15837 26.4272 3.73244 21.0013 3.73242 14.3081C3.73242 7.6149 9.15836 2.18896 15.8516 2.18896C19.9255 2.18897 23.5274 4.20104 25.7246 7.28369C25.6647 8.8038 25.5262 10.198 25.2998 11.4829C25.5645 12.373 25.7099 13.3154 25.71 14.2915C25.7099 16.6709 24.8628 18.8505 23.457 20.5513C24.8532 18.8525 25.6924 16.6786 25.6924 14.3081C25.6923 8.87325 21.2864 4.46729 15.8516 4.46729C10.4168 4.46741 6.01078 8.87333 6.01074 14.3081C6.01074 19.7429 10.4168 24.1488 15.8516 24.1489C15.9417 24.1489 16.0315 24.1445 16.1211 24.1421C15.0351 24.7631 13.8342 25.3579 12.5078 25.9351C13.5753 26.2426 14.7027 26.4106 15.8691 26.4106C19.0058 26.4105 21.8636 25.2185 24.0156 23.2632ZM22.5625 21.5015C20.8654 23.0854 18.6095 24.0752 16.1211 24.1421C16.1317 24.136 16.1427 24.1306 16.1533 24.1245C18.6267 24.0542 20.8708 23.0714 22.5625 21.5015ZM25.7266 7.24756C27.1479 9.23301 27.9881 11.6636 27.9883 14.2915C27.9883 17.6467 26.624 20.683 24.4209 22.8774C26.614 20.6843 27.9707 17.6547 27.9707 14.3081C27.9707 11.6889 27.1372 9.26557 25.7246 7.28369C25.7251 7.27177 25.7261 7.2595 25.7266 7.24756ZM15.8516 7.03662C19.8675 7.03662 23.123 10.2922 23.123 14.3081C23.123 18.324 19.8675 21.5796 15.8516 21.5796C11.8357 21.5795 8.58009 18.324 8.58008 14.3081C8.58008 10.2922 11.8357 7.0367 15.8516 7.03662ZM22.6543 21.4136C22.6236 21.4428 22.5936 21.4726 22.5625 21.5015C22.5935 21.4725 22.6237 21.4429 22.6543 21.4136ZM23.0342 21.0298C22.9802 21.0871 22.9264 21.1446 22.8711 21.2007C22.9263 21.1445 22.9803 21.0873 23.0342 21.0298ZM23.4434 20.5688C23.3534 20.6772 23.2615 20.7838 23.167 20.8882C23.2612 20.7836 23.3537 20.6775 23.4434 20.5688Z" fill="white"/>
<path d="M27.6894 6.10356C26.8774 -7.90928 28.9685 6.84205 28.9685 6.84205C32.0669 27.6316 32.0669 27.6316 13.9571 32.8426C13.9571 32.8426 0.601947 37.1635 12.678 32.1041C24.7541 27.0447 28.5015 20.1164 27.6894 6.10356Z" fill="white"/>
</g>
<g transform="translate(385, 0)" clip-path="url(#clip_f11)">
<path d="M24.0156 24.2632C21.8616 26.2281 18.9969 27.4272 15.8516 27.4272C9.15837 27.4272 3.73244 22.0013 3.73242 15.3081C3.73242 8.6149 9.15836 3.18896 15.8516 3.18896C19.9255 3.18897 23.5274 5.20104 25.7246 8.28369C25.6647 9.8038 25.5262 11.198 25.2998 12.4829C25.5645 13.373 25.7099 14.3154 25.71 15.2915C25.7099 17.6709 24.8628 19.8505 23.457 21.5513C24.8532 19.8525 25.6924 17.6786 25.6924 15.3081C25.6923 9.87325 21.2864 5.46729 15.8516 5.46729C10.4168 5.46741 6.01078 9.87333 6.01074 15.3081C6.01074 20.7429 10.4168 25.1488 15.8516 25.1489C15.9417 25.1489 16.0315 25.1445 16.1211 25.1421C15.0351 25.7631 13.8342 26.3579 12.5078 26.9351C13.5753 27.2426 14.7027 27.4106 15.8691 27.4106C19.0058 27.4105 21.8636 26.2185 24.0156 24.2632ZM22.5625 22.5015C20.8654 24.0854 18.6095 25.0752 16.1211 25.1421C16.1317 25.136 16.1427 25.1306 16.1533 25.1245C18.6267 25.0542 20.8708 24.0714 22.5625 22.5015ZM25.7266 8.24756C27.1479 10.233 27.9881 12.6636 27.9883 15.2915C27.9883 18.6467 26.624 21.683 24.4209 23.8774C26.614 21.6843 27.9707 18.6547 27.9707 15.3081C27.9707 12.6889 27.1372 10.2656 25.7246 8.28369C25.7251 8.27177 25.7261 8.2595 25.7266 8.24756ZM15.8516 8.03662C19.8675 8.03662 23.123 11.2922 23.123 15.3081C23.123 19.324 19.8675 22.5796 15.8516 22.5796C11.8357 22.5795 8.58009 19.324 8.58008 15.3081C8.58008 11.2922 11.8357 8.0367 15.8516 8.03662ZM22.6543 22.4136C22.6236 22.4428 22.5936 22.4726 22.5625 22.5015C22.5935 22.4725 22.6237 22.4429 22.6543 22.4136ZM23.0342 22.0298C22.9802 22.0871 22.9264 22.1446 22.8711 22.2007C22.9263 22.1445 22.9803 22.0873 23.0342 22.0298ZM23.4434 21.5688C23.3534 21.6772 23.2615 21.7838 23.167 21.8882C23.2612 21.7836 23.3537 21.6775 23.4434 21.5688Z" fill="white"/>
<path d="M27.6894 6.10356C26.8774 -7.90928 28.9685 6.84205 28.9685 6.84205C32.0669 27.6316 32.0669 27.6316 13.9571 32.8426C13.9571 32.8426 0.601947 37.1635 12.678 32.1041C24.7541 27.0447 28.5015 20.1164 27.6894 6.10356Z" fill="white"/>
</g>
<g transform="translate(420, 0)" clip-path="url(#clip_f12)">
<path d="M24.0156 25.2632C21.8616 27.2281 18.9969 28.4272 15.8516 28.4272C9.15837 28.4272 3.73244 23.0013 3.73242 16.3081C3.73242 9.6149 9.15836 4.18896 15.8516 4.18896C19.9255 4.18897 23.5274 6.20104 25.7246 9.28369C25.6647 10.8038 25.5262 12.198 25.2998 13.4829C25.5645 14.373 25.7099 15.3154 25.71 16.2915C25.7099 18.6709 24.8628 20.8505 23.457 22.5513C24.8532 20.8525 25.6924 18.6786 25.6924 16.3081C25.6923 10.8733 21.2864 6.46729 15.8516 6.46729C10.4168 6.46741 6.01078 10.8733 6.01074 16.3081C6.01074 21.7429 10.4168 26.1488 15.8516 26.1489C15.9417 26.1489 16.0315 26.1445 16.1211 26.1421C15.0351 26.7631 13.8342 27.3579 12.5078 27.9351C13.5753 28.2426 14.7027 28.4106 15.8691 28.4106C19.0058 28.4105 21.8636 27.2185 24.0156 25.2632ZM22.5625 23.5015C20.8654 25.0854 18.6095 26.0752 16.1211 26.1421C16.1317 26.136 16.1427 26.1306 16.1533 26.1245C18.6267 26.0542 20.8708 25.0714 22.5625 23.5015ZM25.7266 9.24756C27.1479 11.233 27.9881 13.6636 27.9883 16.2915C27.9883 19.6467 26.624 22.683 24.4209 24.8774C26.614 22.6843 27.9707 19.6547 27.9707 16.3081C27.9707 13.6889 27.1372 11.2656 25.7246 9.28369C25.7251 9.27177 25.7261 9.2595 25.7266 9.24756ZM15.8516 9.03662C19.8675 9.03662 23.123 12.2922 23.123 16.3081C23.123 20.324 19.8675 23.5796 15.8516 23.5796C11.8357 23.5795 8.58009 20.324 8.58008 16.3081C8.58008 12.2922 11.8357 9.0367 15.8516 9.03662ZM22.6543 23.4136C22.6236 23.4428 22.5936 23.4726 22.5625 23.5015C22.5935 23.4725 22.6237 23.4429 22.6543 23.4136ZM23.0342 23.0298C22.9802 23.0871 22.9264 23.1446 22.8711 23.2007C22.9263 23.1445 22.9803 23.0873 23.0342 23.0298ZM23.4434 22.5688C23.3534 22.6772 23.2615 22.7838 23.167 22.8882C23.2612 22.7836 23.3537 22.6775 23.4434 22.5688Z" fill="white"/>
<path d="M27.6894 6.10356C26.8774 -7.90928 28.9685 6.84205 28.9685 6.84205C32.0669 27.6316 32.0669 27.6316 13.9571 32.8426C13.9571 32.8426 0.601947 37.1635 12.678 32.1041C24.7541 27.0447 28.5015 20.1164 27.6894 6.10356Z" fill="white"/>
</g>
<g transform="translate(455, 0)" clip-path="url(#clip_f13)">
<path d="M24.0156 27.2632C21.8616 29.2281 18.9969 30.4272 15.8516 30.4272C9.15837 30.4272 3.73244 25.0013 3.73242 18.3081C3.73242 11.6149 9.15836 6.18896 15.8516 6.18896C19.9255 6.18897 23.5274 8.20104 25.7246 11.2837C25.6647 12.8038 25.5262 14.198 25.2998 15.4829C25.5645 16.373 25.7099 17.3154 25.71 18.2915C25.7099 20.6709 24.8628 22.8505 23.457 24.5513C24.8532 22.8525 25.6924 20.6786 25.6924 18.3081C25.6923 12.8733 21.2864 8.46729 15.8516 8.46729C10.4168 8.46741 6.01078 12.8733 6.01074 18.3081C6.01074 23.7429 10.4168 28.1488 15.8516 28.1489C15.9417 28.1489 16.0315 28.1445 16.1211 28.1421C15.0351 28.7631 13.8342 29.3579 12.5078 29.9351C13.5753 30.2426 14.7027 30.4106 15.8691 30.4106C19.0058 30.4105 21.8636 29.2185 24.0156 27.2632ZM22.5625 25.5015C20.8654 27.0854 18.6095 28.0752 16.1211 28.1421C16.1317 28.136 16.1427 28.1306 16.1533 28.1245C18.6267 28.0542 20.8708 27.0714 22.5625 25.5015ZM25.7266 11.2476C27.1479 13.233 27.9881 15.6636 27.9883 18.2915C27.9883 21.6467 26.624 24.683 24.4209 26.8774C26.614 24.6843 27.9707 21.6547 27.9707 18.3081C27.9707 15.6889 27.1372 13.2656 25.7246 11.2837C25.7251 11.2718 25.7261 11.2595 25.7266 11.2476ZM15.8516 11.0366C19.8675 11.0366 23.123 14.2922 23.123 18.3081C23.123 22.324 19.8675 25.5796 15.8516 25.5796C11.8357 25.5795 8.58009 22.324 8.58008 18.3081C8.58008 14.2922 11.8357 11.0367 15.8516 11.0366ZM22.6543 25.4136C22.6236 25.4428 22.5936 25.4726 22.5625 25.5015C22.5935 25.4725 22.6237 25.4429 22.6543 25.4136ZM23.0342 25.0298C22.9802 25.0871 22.9264 25.1446 22.8711 25.2007C22.9263 25.1445 22.9803 25.0873 23.0342 25.0298ZM23.4434 24.5688C23.3534 24.6772 23.2615 24.7838 23.167 24.8882C23.2612 24.7836 23.3537 24.6775 23.4434 24.5688Z" fill="white"/>
<path d="M27.6894 6.10356C26.8774 -7.90928 28.9685 6.84205 28.9685 6.84205C32.0669 27.6316 32.0669 27.6316 13.9571 32.8426C13.9571 32.8426 0.601947 37.1635 12.678 32.1041C24.7541 27.0447 28.5015 20.1164 27.6894 6.10356Z" fill="white"/>
</g>

<defs>
<clipPath id="clip_f0">
<rect width="35" height="35" fill="white"/>
</clipPath>
<clipPath id="clip_f1">
<rect width="35" height="35" fill="white"/>
</clipPath>
<clipPath id="clip_f2">
<rect width="35" height="35" fill="white"/>
</clipPath>
<clipPath id="clip_f3">
<rect width="35" height="35" fill="white"/>
</clipPath>
<clipPath id="clip_f4">
<rect width="35" height="35" fill="white"/>
</clipPath>
<clipPath id="clip_f5">
<rect width="35" height="35" fill="white"/>
</clipPath>
<clipPath id="clip_f6">
<rect width="35" height="35" fill="white"/>
</clipPath>
<clipPath id="clip_f7">
<rect width="35" height="35" fill="white"/>
</clipPath>
<clipPath id="clip_f8">
<rect width="35" height="35" fill="white"/>
</clipPath>
<clipPath id="clip_f9">
<rect width="35" height="35" fill="white"/>
</clipPath>
<clipPath id="clip_f10">
<rect width="35" height="35" fill="white"/>
</clipPath>
<clipPath id="clip_f11">
<rect width="35" height="35" fill="white"/>
</clipPath>
<clipPath id="clip_f12">
<rect width="35" height="35" fill="white"/>
</clipPath>
<clipPath id="clip_f13">
<rect width="35" height="35" fill="white"/>
</clipPath>

</defs>
</svg>