<svg width="793" height="684" viewBox="0 0 793 684" fill="none" xmlns="http://www.w3.org/2000/svg">
<g filter="url(#filter0_dd_39_799)">
<path d="M689 38H232V550H689V38Z" fill="white"/>
<path d="M40 166H104V550H50C44.4772 550 40 545.523 40 540V166Z" fill="#18222F"/>
<path d="M232 38H104V550H232V38Z" fill="#F0F4F9"/>
<path d="M40 48C40 42.4772 44.4772 38 50 38H104V102H40V48Z" fill="#6644FF"/>
<path d="M104 102H40V166H104V102Z" fill="#F0F4F9"/>
<path d="M69 199.734C66.6562 199.734 62.0156 200.906 62.0156 203.25V204.984H75.9844V203.25C75.9844 200.906 71.3438 199.734 69 199.734ZM64.3594 203.016C65.2031 202.406 67.2188 201.75 69 201.75C70.7812 201.75 72.7969 202.406 73.6406 203.016H64.3594ZM69 198C70.9219 198 72.5156 196.453 72.5156 194.484C72.5156 192.562 70.9219 191.016 69 191.016C67.0781 191.016 65.4844 192.562 65.4844 194.484C65.4844 196.453 67.0781 198 69 198ZM69 192.984C69.8438 192.984 70.5 193.688 70.5 194.484C70.5 195.328 69.8438 195.984 69 195.984C68.1562 195.984 67.5 195.328 67.5 194.484C67.5 193.688 68.1562 192.984 69 192.984ZM76.0312 199.828C77.2031 200.672 78 201.75 78 203.25V204.984H81.9844V203.25C81.9844 201.234 78.5156 200.062 76.0312 199.828ZM75 198C76.9219 198 78.5156 196.453 78.5156 194.484C78.5156 192.562 76.9219 191.016 75 191.016C74.4375 191.016 73.9688 191.109 73.5 191.344C74.1094 192.234 74.4844 193.312 74.4844 194.484C74.4844 195.656 74.1094 196.781 73.5 197.672C73.9688 197.859 74.4375 198 75 198Z" fill="#8196B1"/>
<path d="M69.1875 256L71.1562 258.016H80.0156V268H63.9844V256H69.1875ZM69.9844 253.984H63.9844C62.9062 253.984 62.0156 254.922 62.0156 256V268C62.0156 269.078 62.9062 270.016 63.9844 270.016H80.0156C81.0938 270.016 81.9844 269.078 81.9844 268V258.016C81.9844 256.891 81.0938 256 80.0156 256H72L69.9844 253.984Z" fill="#8196B1"/>
<path d="M71.0156 320.984H72.9844V323H71.0156V320.984ZM71.0156 325.016H72.9844V331.016H71.0156V325.016ZM72 316.016C66.4688 316.016 62.0156 320.469 62.0156 326C62.0156 331.531 66.4688 335.984 72 335.984C77.5312 335.984 81.9844 331.531 81.9844 326C81.9844 320.469 77.5312 316.016 72 316.016ZM72 334.016C67.5938 334.016 63.9844 330.406 63.9844 326C63.9844 321.594 67.5938 317.984 72 317.984C76.4062 317.984 80.0156 321.594 80.0156 326C80.0156 330.406 76.4062 334.016 72 334.016Z" fill="#8196B1"/>
<path d="M79.4533 390.984C79.4533 390.656 79.5002 390.328 79.5002 390C79.5002 389.672 79.4533 389.344 79.4533 389.016L81.5627 387.375C81.7502 387.234 81.7971 386.953 81.6564 386.719L79.6408 383.25C79.5471 383.109 79.4064 383.016 79.219 383.016C79.1721 383.016 79.0783 383.016 79.0314 383.062L76.5471 384.047C76.0314 383.672 75.469 383.297 74.8596 383.062L74.4846 380.438C74.4377 380.203 74.2502 380.016 74.0158 380.016H69.9846C69.7502 380.016 69.5627 380.203 69.5158 380.438L69.1408 383.062C68.5314 383.297 67.969 383.672 67.4533 384.047L64.969 383.062C64.8752 383.016 64.8283 383.016 64.7814 383.016C64.594 383.016 64.4533 383.109 64.3596 383.25L62.344 386.719C62.2033 386.953 62.2502 387.234 62.4377 387.375L64.5471 389.016C64.5471 389.344 64.5002 389.672 64.5002 390C64.5002 390.328 64.5471 390.656 64.5471 390.984L62.4377 392.625C62.2502 392.766 62.2033 393.047 62.344 393.281L64.3596 396.75C64.4533 396.891 64.594 396.984 64.7814 396.984C64.8283 396.984 64.9221 396.984 64.969 396.938L67.4533 395.953C67.969 396.328 68.5314 396.703 69.1408 396.938L69.5158 399.562C69.5627 399.797 69.7502 399.984 69.9846 399.984H74.0158C74.2502 399.984 74.4377 399.797 74.4846 399.562L74.8596 396.938C75.469 396.703 76.0314 396.328 76.5471 395.953L79.0314 396.938C79.1252 396.984 79.1721 396.984 79.219 396.984C79.4064 396.984 79.5471 396.891 79.6408 396.75L81.6564 393.281C81.7971 393.047 81.7502 392.766 81.5627 392.625L79.4533 390.984ZM77.4377 389.25C77.4846 389.578 77.4846 389.812 77.4846 390C77.4846 390.188 77.4846 390.422 77.4377 390.75L77.2971 391.875L78.1877 392.578L79.2658 393.422L78.5627 394.594L77.2971 394.078L76.2658 393.703L75.3752 394.359C74.9533 394.688 74.5314 394.922 74.1096 395.109L73.0783 395.531L72.8908 396.656L72.7033 398.016H71.2971L71.1096 396.656L70.969 395.531L69.8908 395.109C69.469 394.922 69.0471 394.688 68.6721 394.359L67.7346 393.703L66.7033 394.125L65.4377 394.641L64.7346 393.422L65.8127 392.578L66.7033 391.875L66.5627 390.75C66.5158 390.422 66.5158 390.188 66.5158 390C66.5158 389.812 66.5158 389.578 66.5627 389.25L66.7033 388.125L65.8127 387.422L64.7346 386.578L65.4377 385.406L66.7033 385.922L67.7346 386.297L68.6252 385.641C69.0471 385.312 69.469 385.078 69.8908 384.891L70.9221 384.469L71.1096 383.344L71.2971 381.984H72.7033L72.8908 383.344L73.0314 384.469L74.1096 384.891C74.5314 385.078 74.9533 385.312 75.3283 385.641L76.219 386.297L77.2971 385.875L78.5627 385.359L79.2658 386.578L78.1877 387.422L77.2971 388.125L77.4377 389.25ZM72.0002 386.016C69.7971 386.016 68.0158 387.797 68.0158 390C68.0158 392.203 69.7971 393.984 72.0002 393.984C74.2033 393.984 75.9846 392.203 75.9846 390C75.9846 387.797 74.2033 386.016 72.0002 386.016ZM72.0002 392.016C70.9221 392.016 69.9846 391.078 69.9846 390C69.9846 388.922 70.9221 387.984 72.0002 387.984C73.0783 387.984 74.0158 388.922 74.0158 390C74.0158 391.078 73.0783 392.016 72.0002 392.016Z" fill="#8196B1"/>
<path d="M75.8682 451.574V445.574C75.8682 444.292 75.5092 443.23 74.7902 442.386C74.0722 441.511 73.1032 441.074 71.8842 441.074C70.6652 441.074 69.6962 441.511 68.9782 442.386C68.2592 443.23 67.9002 444.292 67.9002 445.574V451.574H75.8682ZM77.8842 450.542L79.9002 452.558V453.542H63.8682V452.558L65.8842 450.542V445.574C65.8842 444.011 66.2752 442.652 67.0562 441.496C67.8682 440.339 68.9782 439.589 70.3842 439.246V438.542C70.3842 438.136 70.5252 437.792 70.8062 437.511C71.0872 437.199 71.4462 437.041 71.8842 437.041C72.3222 437.041 72.6812 437.199 72.9622 437.511C73.2432 437.791 73.3842 438.136 73.3842 438.541V439.246C74.7902 439.589 75.8842 440.339 76.6652 441.496C77.4782 442.652 77.8852 444.011 77.8852 445.574L77.8842 450.542ZM73.2902 455.98C72.9127 456.343 72.4082 456.545 71.8842 456.542C71.3542 456.542 70.8842 456.355 70.4782 455.98C70.0722 455.574 69.8682 455.105 69.8682 454.574H73.9002C73.9002 455.104 73.6962 455.574 73.2902 455.98Z" fill="#8196B1"/>
<path d="M72 508.016C66.4688 508.016 62.0156 512.469 62.0156 518C62.0156 523.531 66.4688 527.984 72 527.984C77.5312 527.984 81.9844 523.531 81.9844 518C81.9844 512.469 77.5312 508.016 72 508.016ZM67.0781 524.281C67.5 523.391 70.125 522.5 72 522.5C73.875 522.5 76.5 523.391 76.9219 524.281C75.5625 525.359 73.875 526.016 72 526.016C70.125 526.016 68.4375 525.359 67.0781 524.281ZM78.375 522.828C76.9219 521.094 73.4531 520.484 72 520.484C70.5469 520.484 67.0781 521.094 65.625 522.828C64.6406 521.469 63.9844 519.828 63.9844 518C63.9844 513.594 67.5938 509.984 72 509.984C76.4062 509.984 80.0156 513.594 80.0156 518C80.0156 519.828 79.3594 521.469 78.375 522.828ZM72 512C70.0781 512 68.4844 513.547 68.4844 515.516C68.4844 517.438 70.0781 518.984 72 518.984C73.9219 518.984 75.5156 517.438 75.5156 515.516C75.5156 513.547 73.9219 512 72 512ZM72 517.016C71.1562 517.016 70.5 516.312 70.5 515.516C70.5 514.672 71.1562 514.016 72 514.016C72.8438 514.016 73.5 514.672 73.5 515.516C73.5 516.312 72.8438 517.016 72 517.016Z" fill="#8196B1"/>
<path d="M689 230H753V486H689V230Z" fill="#F0F4F9"/>
<path d="M689 38H743C748.523 38 753 42.4772 753 48V102H689V38Z" fill="#E4EAF1"/>
<path d="M689 102H753V166H689V102Z" fill="#E4EAF1"/>
<path d="M689 166H753V230H689V166Z" fill="#E4EAF1"/>
<path d="M689 486H753V540C753 545.523 748.523 550 743 550H689V486Z" fill="#E4EAF1"/>
<path d="M726 518C723.24 518 721 520.24 721 523C721 525.76 723.24 528 726 528C728.76 528 731 525.76 731 523C731 520.24 728.76 518 726 518ZM727.65 525.35L725.5 523.2V520H726.5V522.79L728.35 524.64L727.65 525.35ZM727 509H723.82C723.4 507.84 722.3 507 721 507C719.7 507 718.6 507.84 718.18 509H715C713.9 509 713 509.9 713 511V526C713 527.1 713.9 528 715 528H721.11C720.518 527.426 720.037 526.748 719.69 526H715V511H717V514H725V511H727V516.08C727.71 516.18 728.38 516.39 729 516.68V511C729 509.9 728.1 509 727 509ZM721 511C720.45 511 720 510.55 720 510C720 509.45 720.45 509 721 509C721.55 509 722 509.45 722 510C722 510.55 721.55 511 721 511Z" fill="#182B44"/>
<path d="M720.016 64.9844H721.984V67H720.016V64.9844ZM720.016 69.0156H721.984V75.0156H720.016V69.0156ZM721 60.0156C715.469 60.0156 711.016 64.4688 711.016 70C711.016 75.5312 715.469 79.9844 721 79.9844C726.531 79.9844 730.984 75.5312 730.984 70C730.984 64.4688 726.531 60.0156 721 60.0156ZM721 78.0156C716.594 78.0156 712.984 74.4062 712.984 70C712.984 65.5938 716.594 61.9844 721 61.9844C725.406 61.9844 729.016 65.5938 729.016 70C729.016 74.4062 725.406 78.0156 721 78.0156Z" fill="#182B44"/>
<path d="M721 140.562L713.641 134.797L712 136.062L721 143.047L730 136.062L728.359 134.797L721 140.562ZM721 137.984L728.359 132.266L730 131L721 124.016L712 131L713.641 132.266L721 137.984ZM721 126.547L726.719 131L721 135.453L715.281 131L721 126.547Z" fill="#182B44"/>
<path d="M715 198.984V197.016H727V198.984H715ZM712 192H730V194.016H712V192ZM718.984 204V201.984H723.016V204H718.984Z" fill="#182B44"/>
<path fill-rule="evenodd" clip-rule="evenodd" d="M84.4136 73.3189C84.2292 73.2728 84.0755 73.2267 83.9372 73.1652C83.7989 73.1038 83.6913 73.0269 83.5991 72.9347C83.6913 72.1203 83.5991 71.4134 83.676 70.6143C83.9833 67.5102 85.9349 68.4937 87.6867 67.9866C88.7778 67.6793 89.8688 67.0492 90.1454 65.7584C88.9468 64.36 87.6099 63.1307 86.15 62.0857C81.4017 58.705 75.1935 57.3527 69.5538 58.2901C70.4379 59.834 71.7555 61.0181 73.2838 61.7476C73.2838 61.7476 71.7555 61.7476 70.4455 60.7691C70.0614 60.9228 69.2926 61.2252 68.9238 61.4096C71.9203 64.2832 76.6072 64.6059 79.9726 62.0243C79.9572 62.055 79.6652 62.5006 79.3118 64.36C78.5281 68.3247 76.2691 68.0173 73.4724 67.0185C67.6637 64.9132 64.4674 66.8648 61.563 62.8694C60.7178 63.3458 60.1954 64.2371 60.1954 65.2052C60.1954 66.204 60.7486 67.0492 61.5477 67.5102C61.9839 66.9315 62.1795 66.7669 62.9403 66.7669C61.763 67.4344 61.6245 68.0173 61.1174 69.6309C60.5027 71.5825 60.7639 73.5802 57.8903 74.1026C56.369 74.1795 56.3998 75.209 55.8465 76.7457C55.155 78.7434 54.233 79.5425 52.4351 81.4326C53.1727 82.3239 53.9411 82.4315 54.7248 82.1088C56.3383 81.4326 57.583 79.3427 58.7509 77.9904C60.0571 76.4845 63.1919 77.1299 65.5584 75.6547C67.1873 74.6558 67.9864 73.3035 66.9107 71.0139C67.6022 71.7822 68.0171 72.7503 68.0786 73.7799C70.8139 73.4265 74.4712 76.7611 77.8058 77.3143C77.4678 76.884 77.1912 76.423 76.9914 75.9467C76.6072 75.0246 76.4843 74.1795 76.5611 73.4418C76.8684 75.2705 78.7125 77.6216 81.6783 77.8368C82.4313 77.8982 83.2611 77.806 84.1216 77.5448C85.1512 77.2375 86.1039 76.8379 87.2411 77.0531C88.0863 77.2067 88.87 77.637 89.3617 78.3593C90.0993 79.4349 91.7129 79.6654 92.4351 78.3439C90.8062 74.0873 86.3191 73.8107 84.4136 73.3189Z" fill="white"/>
<path fill-rule="evenodd" clip-rule="evenodd" d="M62.5626 139.763L71.5938 143.907C71.8646 144.031 72.1354 144.031 72.4062 143.907L81.4349 139.763C81.8112 139.591 81.9995 139.298 82 138.885V128.115C81.9996 128.057 81.994 127.999 81.983 127.941C81.983 127.924 81.983 127.907 81.983 127.89C81.9729 127.848 81.9599 127.807 81.9442 127.767L81.9297 127.726C81.9079 127.675 81.8821 127.627 81.8521 127.58L81.8302 127.549C81.8043 127.513 81.776 127.479 81.7454 127.447L81.6993 127.416C81.6658 127.384 81.6302 127.355 81.5926 127.329L81.5659 127.309C81.5241 127.282 81.4805 127.258 81.4349 127.237L72.4038 123.093C72.133 122.969 71.8622 122.969 71.5914 123.093L62.5626 127.237C62.5171 127.258 62.4734 127.282 62.4317 127.309L62.405 127.329C62.3674 127.355 62.3318 127.384 62.2983 127.416L62.2668 127.45C62.2361 127.482 62.2079 127.516 62.1819 127.551L62.1601 127.583C62.1301 127.629 62.1042 127.677 62.0825 127.728L62.0558 127.767C62.0401 127.807 62.0271 127.848 62.017 127.89C62.017 127.907 62.017 127.924 62.017 127.941C62.006 127.999 62.0004 128.057 62 128.115V138.885C62 139.297 62.1876 139.59 62.5626 139.763ZM63.9377 129.628L71.0287 132.888V141.528L63.9377 138.265V129.628ZM72.9688 141.525V132.888L80.0599 129.628V138.268L72.9688 141.525ZM71.9988 125.03L78.7115 128.115L71.9988 131.201L65.286 128.115L71.9988 125.03Z" fill="#182B44"/>
<path d="M217 114H121C118.791 114 117 115.791 117 118V126C117 128.209 118.791 130 121 130H217C219.209 130 221 128.209 221 126V118C221 115.791 219.209 114 217 114Z" fill="#E4EAF1"/>
<path d="M409 62H313C310.791 62 309 63.7909 309 66V74C309 76.2091 310.791 78 313 78H409C411.209 78 413 76.2091 413 74V66C413 63.7909 411.209 62 409 62Z" fill="#F0F4F9"/>
<path d="M329 128H268C265.791 128 264 129.791 264 132V193C264 195.209 265.791 197 268 197H329C331.209 197 333 195.209 333 193V132C333 129.791 331.209 128 329 128Z" fill="#F0F4F9"/>
<path d="M329 209H268C265.791 209 264 210.791 264 213V274C264 276.209 265.791 278 268 278H329C331.209 278 333 276.209 333 274V213C333 210.791 331.209 209 329 209Z" fill="#F0F4F9"/>
<path d="M329 290H268C265.791 290 264 291.791 264 294V355C264 357.209 265.791 359 268 359H329C331.209 359 333 357.209 333 355V294C333 291.791 331.209 290 329 290Z" fill="#F0F4F9"/>
<path d="M329 371H268C265.791 371 264 372.791 264 375V436C264 438.209 265.791 440 268 440H329C331.209 440 333 438.209 333 436V375C333 372.791 331.209 371 329 371Z" fill="#F0F4F9"/>
<path d="M573 128H512C509.791 128 508 129.791 508 132V193C508 195.209 509.791 197 512 197H573C575.209 197 577 195.209 577 193V132C577 129.791 575.209 128 573 128Z" fill="#F0F4F9"/>
<path d="M654 128H593C590.791 128 589 129.791 589 132V193C589 195.209 590.791 197 593 197H654C656.209 197 658 195.209 658 193V132C658 129.791 656.209 128 654 128Z" fill="#F0F4F9"/>
<path d="M573 209H512C509.791 209 508 210.791 508 213V274C508 276.209 509.791 278 512 278H573C575.209 278 577 276.209 577 274V213C577 210.791 575.209 209 573 209Z" fill="#F0F4F9"/>
<path d="M654 209H593C590.791 209 589 210.791 589 213V274C589 276.209 590.791 278 593 278H654C656.209 278 658 276.209 658 274V213C658 210.791 656.209 209 654 209Z" fill="#F0F4F9"/>
<path d="M573 290H512C509.791 290 508 291.791 508 294V355C508 357.209 509.791 359 512 359H573C575.209 359 577 357.209 577 355V294C577 291.791 575.209 290 573 290Z" fill="#F0F4F9"/>
<path d="M654 290H593C590.791 290 589 291.791 589 294V355C589 357.209 590.791 359 593 359H654C656.209 359 658 357.209 658 355V294C658 291.791 656.209 290 654 290Z" fill="#F0F4F9"/>
<path d="M411 128H350C347.791 128 346 129.791 346 132V193C346 195.209 347.791 197 350 197H411C413.209 197 415 195.209 415 193V132C415 129.791 413.209 128 411 128Z" fill="#F0F4F9"/>
<path d="M411 209H350C347.791 209 346 210.791 346 213V274C346 276.209 347.791 278 350 278H411C413.209 278 415 276.209 415 274V213C415 210.791 413.209 209 411 209Z" fill="#F0F4F9"/>
<path d="M411 290H350C347.791 290 346 291.791 346 294V355C346 357.209 347.791 359 350 359H411C413.209 359 415 357.209 415 355V294C415 291.791 413.209 290 411 290Z" fill="#F0F4F9"/>
<path d="M411 371H350C347.791 371 346 372.791 346 375V436C346 438.209 347.791 440 350 440H411C413.209 440 415 438.209 415 436V375C415 372.791 413.209 371 411 371Z" fill="#F0F4F9"/>
<path d="M492 128H431C428.791 128 427 129.791 427 132V193C427 195.209 428.791 197 431 197H492C494.209 197 496 195.209 496 193V132C496 129.791 494.209 128 492 128Z" fill="#F0F4F9"/>
<path d="M492 209H431C428.791 209 427 210.791 427 213V274C427 276.209 428.791 278 431 278H492C494.209 278 496 276.209 496 274V213C496 210.791 494.209 209 492 209Z" fill="#F0F4F9"/>
<path d="M492 290H431C428.791 290 427 291.791 427 294V355C427 357.209 428.791 359 431 359H492C494.209 359 496 357.209 496 355V294C496 291.791 494.209 290 492 290Z" fill="#F0F4F9"/>
<path d="M300 70C300 60.0589 291.941 52 282 52C272.059 52 264 60.0589 264 70C264 79.9411 272.059 88 282 88C291.941 88 300 79.9411 300 70Z" fill="#F0F4F9"/>
<path d="M191 142H121C118.791 142 117 143.791 117 146V154C117 156.209 118.791 158 121 158H191C193.209 158 195 156.209 195 154V146C195 143.791 193.209 142 191 142Z" fill="#E4EAF1"/>
<path d="M191 236H121C118.791 236 117 237.791 117 240V248C117 250.209 118.791 252 121 252H191C193.209 252 195 250.209 195 248V240C195 237.791 193.209 236 191 236Z" fill="#E4EAF1"/>
<path d="M184 198H121C118.791 198 117 199.791 117 202V210C117 212.209 118.791 214 121 214H184C186.209 214 188 212.209 188 210V202C188 199.791 186.209 198 184 198Z" fill="#E4EAF1"/>
<path d="M203 170H121C118.791 170 117 171.791 117 174V182C117 184.209 118.791 186 121 186H203C205.209 186 207 184.209 207 182V174C207 171.791 205.209 170 203 170Z" fill="#E4EAF1"/>
<path d="M203 264H121C118.791 264 117 265.791 117 268V276C117 278.209 118.791 280 121 280H203C205.209 280 207 278.209 207 276V268C207 265.791 205.209 264 203 264Z" fill="#E4EAF1"/>
<path d="M658 70C658 60.0589 649.941 52 640 52C630.059 52 622 60.0589 622 70C622 79.9411 630.059 88 640 88C649.941 88 658 79.9411 658 70Z" fill="#6644FF"/>
<path d="M646.984 70.9844H640.984V76.9844H639.016V70.9844H633.016V69.0156H639.016V63.0156H640.984V69.0156H646.984V70.9844Z" fill="white"/>
<path d="M614 70C614 60.0589 605.941 52 596 52C586.059 52 578 60.0589 578 70C578 79.9411 586.059 88 596 88C605.941 88 614 79.9411 614 70Z" fill="#DDDDFF"/>
<path d="M593.188 64L595.156 66.0156H604.016V76H587.984V64H593.188ZM593.984 61.9844H587.984C586.906 61.9844 586.016 62.9219 586.016 64V76C586.016 77.0781 586.906 78.0156 587.984 78.0156H604.016C605.094 78.0156 605.984 77.0781 605.984 76V66.0156C605.984 64.8906 605.094 64 604.016 64H596L593.984 61.9844Z" fill="#6644FF"/>
<path d="M569 70C569 60.6112 561.389 53 552 53C542.611 53 535 60.6112 535 70C535 79.3888 542.611 87 552 87C561.389 87 569 79.3888 569 70Z" fill="white" stroke="#D3DAE4" stroke-width="2"/>
<path d="M546.328 70.7031C547.203 71.5781 548.266 72.0156 549.516 72.0156C550.766 72.0156 551.828 71.5781 552.703 70.7031C553.578 69.8281 554.016 68.7656 554.016 67.5156C554.016 66.2656 553.578 65.2031 552.703 64.3281C551.828 63.4531 550.766 63.0156 549.516 63.0156C548.266 63.0156 547.203 63.4531 546.328 64.3281C545.453 65.2031 545.016 66.2656 545.016 67.5156C545.016 68.7656 545.453 69.8281 546.328 70.7031ZM555.516 72.0156L560.484 76.9844L558.984 78.4844L554.016 73.5156V72.7188L553.734 72.4375C552.547 73.4688 551.141 73.9844 549.516 73.9844C547.703 73.9844 546.156 73.3594 544.875 72.1094C543.625 70.8594 543 69.3281 543 67.5156C543 65.7031 543.625 64.1719 544.875 62.9219C546.156 61.6406 547.703 61 549.516 61C551.328 61 552.859 61.6406 554.109 62.9219C555.359 64.1719 555.984 65.7031 555.984 67.5156C555.984 69.1406 555.469 70.5469 554.438 71.7344L554.719 72.0156H555.516Z" fill="#A2B5CD"/>
<path d="M232.435 38H104.435V102H232.435V38Z" fill="#E4EAF1"/>
<path d="M221 224H117V226H221V224Z" fill="#E4EAF1"/>
<path opacity="0.25" d="M96 484H48V486H96V484Z" fill="#8196B1"/>
<path d="M127 79.4688L115.375 64.9844C119.156 62.3281 123.031 61 127 61C130.969 61 134.844 62.3281 138.625 64.9844L127 79.4688Z" fill="#A2B5CD"/>
<path d="M217 62H151C148.791 62 147 63.7909 147 66V74C147 76.2091 148.791 78 151 78H217C219.209 78 221 76.2091 221 74V66C221 63.7909 219.209 62 217 62Z" fill="#A2B5CD"/>
</g>
<path d="M72 644C89.6731 644 104 629.673 104 612C104 594.327 89.6731 580 72 580C54.3269 580 40 594.327 40 612C40 629.673 54.3269 644 72 644Z" fill="#6644FF"/>
<path d="M168 644C185.673 644 200 629.673 200 612C200 594.327 185.673 580 168 580C150.327 580 136 594.327 136 612C136 629.673 150.327 644 168 644Z" fill="#6644FF"/>
<path d="M721 644C738.673 644 753 629.673 753 612C753 594.327 738.673 580 721 580C703.327 580 689 594.327 689 612C689 629.673 703.327 644 721 644Z" fill="#6644FF"/>
<path d="M75.1374 602.545V620H71.4471V606.048H71.3448L67.3477 608.554V605.281L71.6687 602.545H75.1374Z" fill="white"/>
<path d="M161.856 620V617.341L168.069 611.588C168.598 611.077 169.041 610.616 169.399 610.207C169.762 609.798 170.038 609.398 170.225 609.006C170.413 608.608 170.507 608.179 170.507 607.719C170.507 607.207 170.39 606.767 170.157 606.398C169.924 606.023 169.606 605.736 169.203 605.537C168.799 605.332 168.342 605.23 167.831 605.23C167.297 605.23 166.831 605.338 166.433 605.554C166.035 605.77 165.728 606.08 165.512 606.483C165.297 606.886 165.189 607.366 165.189 607.923H161.686C161.686 606.781 161.944 605.79 162.461 604.949C162.978 604.108 163.703 603.457 164.635 602.997C165.566 602.537 166.64 602.307 167.856 602.307C169.106 602.307 170.194 602.528 171.12 602.972C172.052 603.409 172.777 604.017 173.294 604.795C173.811 605.574 174.069 606.466 174.069 607.472C174.069 608.131 173.939 608.781 173.677 609.423C173.422 610.065 172.964 610.778 172.305 611.562C171.646 612.341 170.717 613.276 169.518 614.366L166.97 616.864V616.983H174.299V620H161.856Z" fill="white"/>
<path d="M461 644C478.673 644 493 629.673 493 612C493 594.327 478.673 580 461 580C443.327 580 429 594.327 429 612C429 629.673 443.327 644 461 644Z" fill="#6644FF"/>
<path d="M460.956 620.239C459.684 620.239 458.55 620.02 457.556 619.582C456.567 619.139 455.786 618.531 455.212 617.759C454.644 616.98 454.351 616.082 454.334 615.065H458.05C458.073 615.491 458.212 615.866 458.468 616.19C458.729 616.509 459.076 616.756 459.507 616.932C459.939 617.108 460.425 617.196 460.965 617.196C461.527 617.196 462.025 617.097 462.456 616.898C462.888 616.699 463.226 616.423 463.471 616.071C463.715 615.719 463.837 615.312 463.837 614.852C463.837 614.386 463.706 613.974 463.445 613.616C463.189 613.253 462.82 612.969 462.337 612.764C461.86 612.56 461.292 612.457 460.632 612.457H459.005V609.747H460.632C461.189 609.747 461.681 609.651 462.107 609.457C462.539 609.264 462.874 608.997 463.113 608.656C463.351 608.31 463.471 607.906 463.471 607.446C463.471 607.009 463.365 606.625 463.155 606.295C462.951 605.96 462.661 605.699 462.286 605.511C461.917 605.324 461.485 605.23 460.99 605.23C460.49 605.23 460.033 605.321 459.618 605.503C459.203 605.679 458.871 605.932 458.621 606.261C458.371 606.591 458.238 606.977 458.221 607.42H454.684C454.701 606.415 454.988 605.528 455.544 604.761C456.101 603.994 456.851 603.395 457.794 602.963C458.743 602.526 459.814 602.307 461.007 602.307C462.212 602.307 463.266 602.526 464.169 602.963C465.073 603.401 465.775 603.991 466.275 604.736C466.78 605.474 467.03 606.304 467.025 607.224C467.03 608.202 466.726 609.017 466.113 609.67C465.505 610.324 464.712 610.739 463.735 610.915V611.051C465.019 611.216 465.996 611.662 466.667 612.389C467.343 613.111 467.678 614.014 467.672 615.099C467.678 616.094 467.391 616.977 466.811 617.75C466.238 618.523 465.445 619.131 464.434 619.574C463.422 620.017 462.263 620.239 460.956 620.239Z" fill="white"/>
<path d="M713.518 616.932V614.026L720.805 602.545H723.31V606.568H721.827L717.234 613.838V613.974H727.589V616.932H713.518ZM721.896 620V616.045L721.964 614.759V602.545H725.424V620H721.896Z" fill="white"/>
<g clip-path="url(#clip0_39_799)">
<rect width="50" height="50" transform="translate(47 45)" fill="#6644FF"/>
<circle cx="71.9723" cy="73.9508" r="11.2155" fill="#6644FF"/>
<path d="M70.8125 56.1973C78.4406 56.1975 84.624 62.3816 84.624 70.0098C84.6238 77.6377 78.4405 83.8211 70.8125 83.8213C63.1844 83.8213 57.0002 77.6378 57 70.0098C57 62.3815 63.1843 56.1973 70.8125 56.1973ZM70.8125 58.7939C64.6184 58.7939 59.5967 63.8156 59.5967 70.0098C59.5967 76.2039 64.6184 81.2256 70.8125 81.2256C77.0065 81.2254 82.0273 76.2038 82.0273 70.0098C82.0273 63.8157 77.0065 58.7941 70.8125 58.7939ZM70.8125 61.7217C75.3892 61.7219 79.0996 65.433 79.0996 70.0098C79.0994 74.5863 75.3891 78.2966 70.8125 78.2969C66.2357 78.2969 62.5247 74.5865 62.5244 70.0098C62.5244 65.4328 66.2356 61.7217 70.8125 61.7217Z" fill="white"/>
<path d="M84.618 48.1035C84.8834 48.1888 85.0534 48.3434 85.1357 48.4295C85.2954 48.5964 85.3828 48.7794 85.4197 48.8595C85.5767 49.2009 85.7131 49.7571 85.8277 50.2836C86.0757 51.4234 86.3488 53.0555 86.5578 54.3824C86.663 55.0501 86.7536 55.6482 86.8173 56.0793C86.8492 56.2948 86.8743 56.4688 86.8917 56.5891C86.9004 56.6493 86.9073 56.6963 86.9118 56.7282C86.9141 56.7441 86.9154 56.7565 86.9166 56.7648C86.9168 56.7662 86.9175 56.7675 86.9177 56.7688C87.7969 62.6679 88.4697 67.1781 88.6474 70.6732C88.8247 74.1619 88.5253 76.8495 87.2835 79.0004C86.0279 81.1749 83.9278 82.6016 80.9863 83.8469C78.0587 85.0863 74.1072 86.2212 68.9763 87.6976C68.9738 87.6984 68.9707 87.6997 68.9678 87.7006C68.939 87.7099 68.8964 87.7233 68.8421 87.7407C68.7329 87.7758 68.5749 87.8263 68.379 87.8884C67.9872 88.0126 67.443 88.1843 66.8327 88.3714C65.6203 88.7431 64.1189 89.1871 63.0407 89.4511C62.5415 89.5733 62.0084 89.6896 61.6458 89.7012C61.5583 89.7039 61.3723 89.7055 61.1685 89.6489C61.0262 89.6093 60.3153 89.365 60.2685 88.5496C60.2505 88.2352 60.3579 87.9969 60.4271 87.8744C60.5 87.7457 60.583 87.6522 60.6377 87.5957C60.7468 87.483 60.8667 87.395 60.9557 87.3339C61.3028 87.0955 61.9243 86.7771 62.8156 86.3644C63.7351 85.9386 65.0173 85.3782 66.7434 84.655C73.4953 81.8262 77.7459 78.547 80.2427 74.1642C82.7515 69.7601 83.5952 64.0609 83.1378 56.1674C83.0217 54.165 82.9567 52.6655 82.9329 51.5769C82.9097 50.5171 82.9222 49.7737 82.9836 49.3328C82.9994 49.2195 83.0257 49.0746 83.0738 48.9305C83.098 48.8582 83.1387 48.7504 83.2092 48.6354C83.2744 48.5291 83.4136 48.3353 83.6661 48.1956C83.9622 48.0318 84.3063 48.0033 84.618 48.1035Z" fill="white" stroke="#6644FF" stroke-width="2.33702"/>
</g>
<defs>
<filter id="filter0_dd_39_799" x="0" y="0" width="793" height="592" filterUnits="userSpaceOnUse" color-interpolation-filters="sRGB">
<feFlood flood-opacity="0" result="BackgroundImageFix"/>
<feColorMatrix in="SourceAlpha" type="matrix" values="0 0 0 0 0 0 0 0 0 0 0 0 0 0 0 0 0 0 127 0" result="hardAlpha"/>
<feOffset dy="2"/>
<feGaussianBlur stdDeviation="20"/>
<feColorMatrix type="matrix" values="0 0 0 0 0.0901961 0 0 0 0 0.160784 0 0 0 0 0.25098 0 0 0 0.05 0"/>
<feBlend mode="normal" in2="BackgroundImageFix" result="effect1_dropShadow_39_799"/>
<feColorMatrix in="SourceAlpha" type="matrix" values="0 0 0 0 0 0 0 0 0 0 0 0 0 0 0 0 0 0 127 0" result="hardAlpha"/>
<feOffset dy="5"/>
<feGaussianBlur stdDeviation="5"/>
<feColorMatrix type="matrix" values="0 0 0 0 0.0901961 0 0 0 0 0.160784 0 0 0 0 0.25098 0 0 0 0.1 0"/>
<feBlend mode="normal" in2="effect1_dropShadow_39_799" result="effect2_dropShadow_39_799"/>
<feBlend mode="normal" in="SourceGraphic" in2="effect2_dropShadow_39_799" result="shape"/>
</filter>
<clipPath id="clip0_39_799">
<rect width="50" height="50" fill="white" transform="translate(47 45)"/>
</clipPath>
</defs>
</svg>
